<?xml version="1.0" encoding="utf-8" standalone="no"?>
<!DOCTYPE svg PUBLIC "-//W3C//DTD SVG 1.1//EN"
  "http://www.w3.org/Graphics/SVG/1.1/DTD/svg11.dtd">
<svg xmlns:xlink="http://www.w3.org/1999/xlink" width="864pt" height="432pt" viewBox="0 0 864 432" xmlns="http://www.w3.org/2000/svg" version="1.1">
 <metadata>
  <rdf:RDF xmlns:dc="http://purl.org/dc/elements/1.1/" xmlns:cc="http://creativecommons.org/ns#" xmlns:rdf="http://www.w3.org/1999/02/22-rdf-syntax-ns#">
   <cc:Work>
    <dc:type rdf:resource="http://purl.org/dc/dcmitype/StillImage"/>
    <dc:date>2024-12-29T23:03:26.070194</dc:date>
    <dc:format>image/svg+xml</dc:format>
    <dc:creator>
     <cc:Agent>
      <dc:title>Matplotlib v3.8.0, https://matplotlib.org/</dc:title>
     </cc:Agent>
    </dc:creator>
   </cc:Work>
  </rdf:RDF>
 </metadata>
 <defs>
  <style type="text/css">*{stroke-linejoin: round; stroke-linecap: butt}</style>
 </defs>
 <g id="figure_1">
  <g id="patch_1">
   <path d="M 0 432 
L 864 432 
L 864 0 
L 0 0 
z
" style="fill: #ffffff"/>
  </g>
  <g id="axes_1">
   <g id="patch_2">
    <path d="M 88.22 363.76 
L 433.575 363.76 
L 433.575 42.12 
L 88.22 42.12 
z
" style="fill: #ffffff"/>
   </g>
   <g id="patch_3">
    <path d="M 103.917955 363.76 
L 110.197136 363.76 
L 110.197136 359.363008 
L 103.917955 359.363008 
z
" clip-path="url(#p5167d7d1d6)" style="fill: #0000ff; opacity: 0.7; stroke: #000000; stroke-linejoin: miter"/>
   </g>
   <g id="patch_4">
    <path d="M 110.197136 363.76 
L 116.476318 363.76 
L 116.476318 361.561504 
L 110.197136 361.561504 
z
" clip-path="url(#p5167d7d1d6)" style="fill: #0000ff; opacity: 0.7; stroke: #000000; stroke-linejoin: miter"/>
   </g>
   <g id="patch_5">
    <path d="M 116.476318 363.76 
L 122.7555 363.76 
L 122.7555 357.897343 
L 116.476318 357.897343 
z
" clip-path="url(#p5167d7d1d6)" style="fill: #0000ff; opacity: 0.7; stroke: #000000; stroke-linejoin: miter"/>
   </g>
   <g id="patch_6">
    <path d="M 122.7555 363.76 
L 129.034682 363.76 
L 129.034682 360.828672 
L 122.7555 360.828672 
z
" clip-path="url(#p5167d7d1d6)" style="fill: #0000ff; opacity: 0.7; stroke: #000000; stroke-linejoin: miter"/>
   </g>
   <g id="patch_7">
    <path d="M 129.034682 363.76 
L 135.313864 363.76 
L 135.313864 361.561504 
L 129.034682 361.561504 
z
" clip-path="url(#p5167d7d1d6)" style="fill: #0000ff; opacity: 0.7; stroke: #000000; stroke-linejoin: miter"/>
   </g>
   <g id="patch_8">
    <path d="M 135.313864 363.76 
L 141.593045 363.76 
L 141.593045 357.897343 
L 135.313864 357.897343 
z
" clip-path="url(#p5167d7d1d6)" style="fill: #0000ff; opacity: 0.7; stroke: #000000; stroke-linejoin: miter"/>
   </g>
   <g id="patch_9">
    <path d="M 141.593045 363.76 
L 147.872227 363.76 
L 147.872227 345.439198 
L 141.593045 345.439198 
z
" clip-path="url(#p5167d7d1d6)" style="fill: #0000ff; opacity: 0.7; stroke: #000000; stroke-linejoin: miter"/>
   </g>
   <g id="patch_10">
    <path d="M 147.872227 363.76 
L 154.151409 363.76 
L 154.151409 352.767519 
L 147.872227 352.767519 
z
" clip-path="url(#p5167d7d1d6)" style="fill: #0000ff; opacity: 0.7; stroke: #000000; stroke-linejoin: miter"/>
   </g>
   <g id="patch_11">
    <path d="M 154.151409 363.76 
L 160.430591 363.76 
L 160.430591 319.790075 
L 154.151409 319.790075 
z
" clip-path="url(#p5167d7d1d6)" style="fill: #0000ff; opacity: 0.7; stroke: #000000; stroke-linejoin: miter"/>
   </g>
   <g id="patch_12">
    <path d="M 160.430591 363.76 
L 166.709773 363.76 
L 166.709773 312.461754 
L 160.430591 312.461754 
z
" clip-path="url(#p5167d7d1d6)" style="fill: #0000ff; opacity: 0.7; stroke: #000000; stroke-linejoin: miter"/>
   </g>
   <g id="patch_13">
    <path d="M 166.709773 363.76 
L 172.988955 363.76 
L 172.988955 57.43619 
L 166.709773 57.43619 
z
" clip-path="url(#p5167d7d1d6)" style="fill: #0000ff; opacity: 0.7; stroke: #000000; stroke-linejoin: miter"/>
   </g>
   <g id="patch_14">
    <path d="M 172.988955 363.76 
L 179.268136 363.76 
L 179.268136 312.461754 
L 172.988955 312.461754 
z
" clip-path="url(#p5167d7d1d6)" style="fill: #0000ff; opacity: 0.7; stroke: #000000; stroke-linejoin: miter"/>
   </g>
   <g id="patch_15">
    <path d="M 179.268136 363.76 
L 185.547318 363.76 
L 185.547318 349.83619 
L 179.268136 349.83619 
z
" clip-path="url(#p5167d7d1d6)" style="fill: #0000ff; opacity: 0.7; stroke: #000000; stroke-linejoin: miter"/>
   </g>
   <g id="patch_16">
    <path d="M 185.547318 363.76 
L 191.8265 363.76 
L 191.8265 337.378045 
L 185.547318 337.378045 
z
" clip-path="url(#p5167d7d1d6)" style="fill: #0000ff; opacity: 0.7; stroke: #000000; stroke-linejoin: miter"/>
   </g>
   <g id="patch_17">
    <path d="M 191.8265 363.76 
L 198.105682 363.76 
L 198.105682 342.50787 
L 191.8265 342.50787 
z
" clip-path="url(#p5167d7d1d6)" style="fill: #0000ff; opacity: 0.7; stroke: #000000; stroke-linejoin: miter"/>
   </g>
   <g id="patch_18">
    <path d="M 198.105682 363.76 
L 204.384864 363.76 
L 204.384864 325.652732 
L 198.105682 325.652732 
z
" clip-path="url(#p5167d7d1d6)" style="fill: #0000ff; opacity: 0.7; stroke: #000000; stroke-linejoin: miter"/>
   </g>
   <g id="patch_19">
    <path d="M 204.384864 363.76 
L 210.664045 363.76 
L 210.664045 349.103358 
L 204.384864 349.103358 
z
" clip-path="url(#p5167d7d1d6)" style="fill: #0000ff; opacity: 0.7; stroke: #000000; stroke-linejoin: miter"/>
   </g>
   <g id="patch_20">
    <path d="M 210.664045 363.76 
L 216.943227 363.76 
L 216.943227 353.500351 
L 210.664045 353.500351 
z
" clip-path="url(#p5167d7d1d6)" style="fill: #0000ff; opacity: 0.7; stroke: #000000; stroke-linejoin: miter"/>
   </g>
   <g id="patch_21">
    <path d="M 216.943227 363.76 
L 223.222409 363.76 
L 223.222409 363.027168 
L 216.943227 363.027168 
z
" clip-path="url(#p5167d7d1d6)" style="fill: #0000ff; opacity: 0.7; stroke: #000000; stroke-linejoin: miter"/>
   </g>
   <g id="patch_22">
    <path d="M 223.222409 363.76 
L 229.501591 363.76 
L 229.501591 362.294336 
L 223.222409 362.294336 
z
" clip-path="url(#p5167d7d1d6)" style="fill: #0000ff; opacity: 0.7; stroke: #000000; stroke-linejoin: miter"/>
   </g>
   <g id="patch_23">
    <path d="M 229.501591 363.76 
L 235.780773 363.76 
L 235.780773 363.76 
L 229.501591 363.76 
z
" clip-path="url(#p5167d7d1d6)" style="fill: #0000ff; opacity: 0.7; stroke: #000000; stroke-linejoin: miter"/>
   </g>
   <g id="patch_24">
    <path d="M 235.780773 363.76 
L 242.059955 363.76 
L 242.059955 360.828672 
L 235.780773 360.828672 
z
" clip-path="url(#p5167d7d1d6)" style="fill: #0000ff; opacity: 0.7; stroke: #000000; stroke-linejoin: miter"/>
   </g>
   <g id="patch_25">
    <path d="M 242.059955 363.76 
L 248.339136 363.76 
L 248.339136 363.76 
L 242.059955 363.76 
z
" clip-path="url(#p5167d7d1d6)" style="fill: #0000ff; opacity: 0.7; stroke: #000000; stroke-linejoin: miter"/>
   </g>
   <g id="patch_26">
    <path d="M 248.339136 363.76 
L 254.618318 363.76 
L 254.618318 363.027168 
L 248.339136 363.027168 
z
" clip-path="url(#p5167d7d1d6)" style="fill: #0000ff; opacity: 0.7; stroke: #000000; stroke-linejoin: miter"/>
   </g>
   <g id="patch_27">
    <path d="M 254.618318 363.76 
L 260.8975 363.76 
L 260.8975 363.76 
L 254.618318 363.76 
z
" clip-path="url(#p5167d7d1d6)" style="fill: #0000ff; opacity: 0.7; stroke: #000000; stroke-linejoin: miter"/>
   </g>
   <g id="patch_28">
    <path d="M 260.8975 363.76 
L 267.176682 363.76 
L 267.176682 362.294336 
L 260.8975 362.294336 
z
" clip-path="url(#p5167d7d1d6)" style="fill: #0000ff; opacity: 0.7; stroke: #000000; stroke-linejoin: miter"/>
   </g>
   <g id="patch_29">
    <path d="M 267.176682 363.76 
L 273.455864 363.76 
L 273.455864 363.76 
L 267.176682 363.76 
z
" clip-path="url(#p5167d7d1d6)" style="fill: #0000ff; opacity: 0.7; stroke: #000000; stroke-linejoin: miter"/>
   </g>
   <g id="patch_30">
    <path d="M 273.455864 363.76 
L 279.735045 363.76 
L 279.735045 363.76 
L 273.455864 363.76 
z
" clip-path="url(#p5167d7d1d6)" style="fill: #0000ff; opacity: 0.7; stroke: #000000; stroke-linejoin: miter"/>
   </g>
   <g id="patch_31">
    <path d="M 279.735045 363.76 
L 286.014227 363.76 
L 286.014227 363.76 
L 279.735045 363.76 
z
" clip-path="url(#p5167d7d1d6)" style="fill: #0000ff; opacity: 0.7; stroke: #000000; stroke-linejoin: miter"/>
   </g>
   <g id="patch_32">
    <path d="M 286.014227 363.76 
L 292.293409 363.76 
L 292.293409 363.76 
L 286.014227 363.76 
z
" clip-path="url(#p5167d7d1d6)" style="fill: #0000ff; opacity: 0.7; stroke: #000000; stroke-linejoin: miter"/>
   </g>
   <g id="patch_33">
    <path d="M 292.293409 363.76 
L 298.572591 363.76 
L 298.572591 363.76 
L 292.293409 363.76 
z
" clip-path="url(#p5167d7d1d6)" style="fill: #0000ff; opacity: 0.7; stroke: #000000; stroke-linejoin: miter"/>
   </g>
   <g id="patch_34">
    <path d="M 298.572591 363.76 
L 304.851773 363.76 
L 304.851773 363.76 
L 298.572591 363.76 
z
" clip-path="url(#p5167d7d1d6)" style="fill: #0000ff; opacity: 0.7; stroke: #000000; stroke-linejoin: miter"/>
   </g>
   <g id="patch_35">
    <path d="M 304.851773 363.76 
L 311.130955 363.76 
L 311.130955 363.76 
L 304.851773 363.76 
z
" clip-path="url(#p5167d7d1d6)" style="fill: #0000ff; opacity: 0.7; stroke: #000000; stroke-linejoin: miter"/>
   </g>
   <g id="patch_36">
    <path d="M 311.130955 363.76 
L 317.410136 363.76 
L 317.410136 363.76 
L 311.130955 363.76 
z
" clip-path="url(#p5167d7d1d6)" style="fill: #0000ff; opacity: 0.7; stroke: #000000; stroke-linejoin: miter"/>
   </g>
   <g id="patch_37">
    <path d="M 317.410136 363.76 
L 323.689318 363.76 
L 323.689318 363.76 
L 317.410136 363.76 
z
" clip-path="url(#p5167d7d1d6)" style="fill: #0000ff; opacity: 0.7; stroke: #000000; stroke-linejoin: miter"/>
   </g>
   <g id="patch_38">
    <path d="M 323.689318 363.76 
L 329.9685 363.76 
L 329.9685 362.294336 
L 323.689318 362.294336 
z
" clip-path="url(#p5167d7d1d6)" style="fill: #0000ff; opacity: 0.7; stroke: #000000; stroke-linejoin: miter"/>
   </g>
   <g id="patch_39">
    <path d="M 329.9685 363.76 
L 336.247682 363.76 
L 336.247682 363.76 
L 329.9685 363.76 
z
" clip-path="url(#p5167d7d1d6)" style="fill: #0000ff; opacity: 0.7; stroke: #000000; stroke-linejoin: miter"/>
   </g>
   <g id="patch_40">
    <path d="M 336.247682 363.76 
L 342.526864 363.76 
L 342.526864 363.027168 
L 336.247682 363.027168 
z
" clip-path="url(#p5167d7d1d6)" style="fill: #0000ff; opacity: 0.7; stroke: #000000; stroke-linejoin: miter"/>
   </g>
   <g id="patch_41">
    <path d="M 342.526864 363.76 
L 348.806045 363.76 
L 348.806045 363.76 
L 342.526864 363.76 
z
" clip-path="url(#p5167d7d1d6)" style="fill: #0000ff; opacity: 0.7; stroke: #000000; stroke-linejoin: miter"/>
   </g>
   <g id="patch_42">
    <path d="M 348.806045 363.76 
L 355.085227 363.76 
L 355.085227 363.76 
L 348.806045 363.76 
z
" clip-path="url(#p5167d7d1d6)" style="fill: #0000ff; opacity: 0.7; stroke: #000000; stroke-linejoin: miter"/>
   </g>
   <g id="patch_43">
    <path d="M 355.085227 363.76 
L 361.364409 363.76 
L 361.364409 363.76 
L 355.085227 363.76 
z
" clip-path="url(#p5167d7d1d6)" style="fill: #0000ff; opacity: 0.7; stroke: #000000; stroke-linejoin: miter"/>
   </g>
   <g id="patch_44">
    <path d="M 361.364409 363.76 
L 367.643591 363.76 
L 367.643591 363.76 
L 361.364409 363.76 
z
" clip-path="url(#p5167d7d1d6)" style="fill: #0000ff; opacity: 0.7; stroke: #000000; stroke-linejoin: miter"/>
   </g>
   <g id="patch_45">
    <path d="M 367.643591 363.76 
L 373.922773 363.76 
L 373.922773 363.76 
L 367.643591 363.76 
z
" clip-path="url(#p5167d7d1d6)" style="fill: #0000ff; opacity: 0.7; stroke: #000000; stroke-linejoin: miter"/>
   </g>
   <g id="patch_46">
    <path d="M 373.922773 363.76 
L 380.201955 363.76 
L 380.201955 363.027168 
L 373.922773 363.027168 
z
" clip-path="url(#p5167d7d1d6)" style="fill: #0000ff; opacity: 0.7; stroke: #000000; stroke-linejoin: miter"/>
   </g>
   <g id="patch_47">
    <path d="M 380.201955 363.76 
L 386.481136 363.76 
L 386.481136 363.027168 
L 380.201955 363.027168 
z
" clip-path="url(#p5167d7d1d6)" style="fill: #0000ff; opacity: 0.7; stroke: #000000; stroke-linejoin: miter"/>
   </g>
   <g id="patch_48">
    <path d="M 386.481136 363.76 
L 392.760318 363.76 
L 392.760318 363.76 
L 386.481136 363.76 
z
" clip-path="url(#p5167d7d1d6)" style="fill: #0000ff; opacity: 0.7; stroke: #000000; stroke-linejoin: miter"/>
   </g>
   <g id="patch_49">
    <path d="M 392.760318 363.76 
L 399.0395 363.76 
L 399.0395 363.76 
L 392.760318 363.76 
z
" clip-path="url(#p5167d7d1d6)" style="fill: #0000ff; opacity: 0.7; stroke: #000000; stroke-linejoin: miter"/>
   </g>
   <g id="patch_50">
    <path d="M 399.0395 363.76 
L 405.318682 363.76 
L 405.318682 363.76 
L 399.0395 363.76 
z
" clip-path="url(#p5167d7d1d6)" style="fill: #0000ff; opacity: 0.7; stroke: #000000; stroke-linejoin: miter"/>
   </g>
   <g id="patch_51">
    <path d="M 405.318682 363.76 
L 411.597864 363.76 
L 411.597864 363.76 
L 405.318682 363.76 
z
" clip-path="url(#p5167d7d1d6)" style="fill: #0000ff; opacity: 0.7; stroke: #000000; stroke-linejoin: miter"/>
   </g>
   <g id="patch_52">
    <path d="M 411.597864 363.76 
L 417.877045 363.76 
L 417.877045 362.294336 
L 411.597864 362.294336 
z
" clip-path="url(#p5167d7d1d6)" style="fill: #0000ff; opacity: 0.7; stroke: #000000; stroke-linejoin: miter"/>
   </g>
   <g id="matplotlib.axis_1">
    <g id="xtick_1">
     <g id="line2d_1">
      <defs>
       <path id="m0425f71c79" d="M 0 0 
L 0 3.5 
" style="stroke: #000000; stroke-width: 0.8"/>
      </defs>
      <g>
       <use xlink:href="#m0425f71c79" x="103.917955" y="363.76" style="stroke: #000000; stroke-width: 0.8"/>
      </g>
     </g>
     <g id="text_1">
      <!-- 10 -->
      <g transform="translate(89.920455 387.476562) scale(0.22 -0.22)">
       <defs>
        <path id="DejaVuSans-31" d="M 794 531 
L 1825 531 
L 1825 4091 
L 703 3866 
L 703 4441 
L 1819 4666 
L 2450 4666 
L 2450 531 
L 3481 531 
L 3481 0 
L 794 0 
L 794 531 
z
" transform="scale(0.015625)"/>
        <path id="DejaVuSans-30" d="M 2034 4250 
Q 1547 4250 1301 3770 
Q 1056 3291 1056 2328 
Q 1056 1369 1301 889 
Q 1547 409 2034 409 
Q 2525 409 2770 889 
Q 3016 1369 3016 2328 
Q 3016 3291 2770 3770 
Q 2525 4250 2034 4250 
z
M 2034 4750 
Q 2819 4750 3233 4129 
Q 3647 3509 3647 2328 
Q 3647 1150 3233 529 
Q 2819 -91 2034 -91 
Q 1250 -91 836 529 
Q 422 1150 422 2328 
Q 422 3509 836 4129 
Q 1250 4750 2034 4750 
z
" transform="scale(0.015625)"/>
       </defs>
       <use xlink:href="#DejaVuSans-31"/>
       <use xlink:href="#DejaVuSans-30" x="63.623047"/>
      </g>
     </g>
    </g>
    <g id="xtick_2">
     <g id="line2d_2">
      <g>
       <use xlink:href="#m0425f71c79" x="161.001426" y="363.76" style="stroke: #000000; stroke-width: 0.8"/>
      </g>
     </g>
     <g id="text_2">
      <!-- 20 -->
      <g transform="translate(147.003926 387.476562) scale(0.22 -0.22)">
       <defs>
        <path id="DejaVuSans-32" d="M 1228 531 
L 3431 531 
L 3431 0 
L 469 0 
L 469 531 
Q 828 903 1448 1529 
Q 2069 2156 2228 2338 
Q 2531 2678 2651 2914 
Q 2772 3150 2772 3378 
Q 2772 3750 2511 3984 
Q 2250 4219 1831 4219 
Q 1534 4219 1204 4116 
Q 875 4013 500 3803 
L 500 4441 
Q 881 4594 1212 4672 
Q 1544 4750 1819 4750 
Q 2544 4750 2975 4387 
Q 3406 4025 3406 3419 
Q 3406 3131 3298 2873 
Q 3191 2616 2906 2266 
Q 2828 2175 2409 1742 
Q 1991 1309 1228 531 
z
" transform="scale(0.015625)"/>
       </defs>
       <use xlink:href="#DejaVuSans-32"/>
       <use xlink:href="#DejaVuSans-30" x="63.623047"/>
      </g>
     </g>
    </g>
    <g id="xtick_3">
     <g id="line2d_3">
      <g>
       <use xlink:href="#m0425f71c79" x="218.084897" y="363.76" style="stroke: #000000; stroke-width: 0.8"/>
      </g>
     </g>
     <g id="text_3">
      <!-- 30 -->
      <g transform="translate(204.087397 387.476562) scale(0.22 -0.22)">
       <defs>
        <path id="DejaVuSans-33" d="M 2597 2516 
Q 3050 2419 3304 2112 
Q 3559 1806 3559 1356 
Q 3559 666 3084 287 
Q 2609 -91 1734 -91 
Q 1441 -91 1130 -33 
Q 819 25 488 141 
L 488 750 
Q 750 597 1062 519 
Q 1375 441 1716 441 
Q 2309 441 2620 675 
Q 2931 909 2931 1356 
Q 2931 1769 2642 2001 
Q 2353 2234 1838 2234 
L 1294 2234 
L 1294 2753 
L 1863 2753 
Q 2328 2753 2575 2939 
Q 2822 3125 2822 3475 
Q 2822 3834 2567 4026 
Q 2313 4219 1838 4219 
Q 1578 4219 1281 4162 
Q 984 4106 628 3988 
L 628 4550 
Q 988 4650 1302 4700 
Q 1616 4750 1894 4750 
Q 2613 4750 3031 4423 
Q 3450 4097 3450 3541 
Q 3450 3153 3228 2886 
Q 3006 2619 2597 2516 
z
" transform="scale(0.015625)"/>
       </defs>
       <use xlink:href="#DejaVuSans-33"/>
       <use xlink:href="#DejaVuSans-30" x="63.623047"/>
      </g>
     </g>
    </g>
    <g id="xtick_4">
     <g id="line2d_4">
      <g>
       <use xlink:href="#m0425f71c79" x="275.168368" y="363.76" style="stroke: #000000; stroke-width: 0.8"/>
      </g>
     </g>
     <g id="text_4">
      <!-- 40 -->
      <g transform="translate(261.170868 387.476562) scale(0.22 -0.22)">
       <defs>
        <path id="DejaVuSans-34" d="M 2419 4116 
L 825 1625 
L 2419 1625 
L 2419 4116 
z
M 2253 4666 
L 3047 4666 
L 3047 1625 
L 3713 1625 
L 3713 1100 
L 3047 1100 
L 3047 0 
L 2419 0 
L 2419 1100 
L 313 1100 
L 313 1709 
L 2253 4666 
z
" transform="scale(0.015625)"/>
       </defs>
       <use xlink:href="#DejaVuSans-34"/>
       <use xlink:href="#DejaVuSans-30" x="63.623047"/>
      </g>
     </g>
    </g>
    <g id="xtick_5">
     <g id="line2d_5">
      <g>
       <use xlink:href="#m0425f71c79" x="332.251839" y="363.76" style="stroke: #000000; stroke-width: 0.8"/>
      </g>
     </g>
     <g id="text_5">
      <!-- 50 -->
      <g transform="translate(318.254339 387.476562) scale(0.22 -0.22)">
       <defs>
        <path id="DejaVuSans-35" d="M 691 4666 
L 3169 4666 
L 3169 4134 
L 1269 4134 
L 1269 2991 
Q 1406 3038 1543 3061 
Q 1681 3084 1819 3084 
Q 2600 3084 3056 2656 
Q 3513 2228 3513 1497 
Q 3513 744 3044 326 
Q 2575 -91 1722 -91 
Q 1428 -91 1123 -41 
Q 819 9 494 109 
L 494 744 
Q 775 591 1075 516 
Q 1375 441 1709 441 
Q 2250 441 2565 725 
Q 2881 1009 2881 1497 
Q 2881 1984 2565 2268 
Q 2250 2553 1709 2553 
Q 1456 2553 1204 2497 
Q 953 2441 691 2322 
L 691 4666 
z
" transform="scale(0.015625)"/>
       </defs>
       <use xlink:href="#DejaVuSans-35"/>
       <use xlink:href="#DejaVuSans-30" x="63.623047"/>
      </g>
     </g>
    </g>
    <g id="xtick_6">
     <g id="line2d_6">
      <g>
       <use xlink:href="#m0425f71c79" x="389.33531" y="363.76" style="stroke: #000000; stroke-width: 0.8"/>
      </g>
     </g>
     <g id="text_6">
      <!-- 60 -->
      <g transform="translate(375.33781 387.476562) scale(0.22 -0.22)">
       <defs>
        <path id="DejaVuSans-36" d="M 2113 2584 
Q 1688 2584 1439 2293 
Q 1191 2003 1191 1497 
Q 1191 994 1439 701 
Q 1688 409 2113 409 
Q 2538 409 2786 701 
Q 3034 994 3034 1497 
Q 3034 2003 2786 2293 
Q 2538 2584 2113 2584 
z
M 3366 4563 
L 3366 3988 
Q 3128 4100 2886 4159 
Q 2644 4219 2406 4219 
Q 1781 4219 1451 3797 
Q 1122 3375 1075 2522 
Q 1259 2794 1537 2939 
Q 1816 3084 2150 3084 
Q 2853 3084 3261 2657 
Q 3669 2231 3669 1497 
Q 3669 778 3244 343 
Q 2819 -91 2113 -91 
Q 1303 -91 875 529 
Q 447 1150 447 2328 
Q 447 3434 972 4092 
Q 1497 4750 2381 4750 
Q 2619 4750 2861 4703 
Q 3103 4656 3366 4563 
z
" transform="scale(0.015625)"/>
       </defs>
       <use xlink:href="#DejaVuSans-36"/>
       <use xlink:href="#DejaVuSans-30" x="63.623047"/>
      </g>
     </g>
    </g>
    <g id="text_7">
     <!-- Długość sekwencji -->
     <g transform="translate(145.760781 416.047969) scale(0.25 -0.25)">
      <defs>
       <path id="DejaVuSans-44" d="M 1259 4147 
L 1259 519 
L 2022 519 
Q 2988 519 3436 956 
Q 3884 1394 3884 2338 
Q 3884 3275 3436 3711 
Q 2988 4147 2022 4147 
L 1259 4147 
z
M 628 4666 
L 1925 4666 
Q 3281 4666 3915 4102 
Q 4550 3538 4550 2338 
Q 4550 1131 3912 565 
Q 3275 0 1925 0 
L 628 0 
L 628 4666 
z
" transform="scale(0.015625)"/>
       <path id="DejaVuSans-142" d="M 622 4863 
L 1197 4863 
L 1197 2981 
L 1588 3263 
L 1825 2931 
L 1197 2491 
L 1197 0 
L 622 0 
L 622 2081 
L 238 1806 
L 6 2138 
L 622 2578 
L 622 4863 
z
" transform="scale(0.015625)"/>
       <path id="DejaVuSans-75" d="M 544 1381 
L 544 3500 
L 1119 3500 
L 1119 1403 
Q 1119 906 1312 657 
Q 1506 409 1894 409 
Q 2359 409 2629 706 
Q 2900 1003 2900 1516 
L 2900 3500 
L 3475 3500 
L 3475 0 
L 2900 0 
L 2900 538 
Q 2691 219 2414 64 
Q 2138 -91 1772 -91 
Q 1169 -91 856 284 
Q 544 659 544 1381 
z
M 1991 3584 
L 1991 3584 
z
" transform="scale(0.015625)"/>
       <path id="DejaVuSans-67" d="M 2906 1791 
Q 2906 2416 2648 2759 
Q 2391 3103 1925 3103 
Q 1463 3103 1205 2759 
Q 947 2416 947 1791 
Q 947 1169 1205 825 
Q 1463 481 1925 481 
Q 2391 481 2648 825 
Q 2906 1169 2906 1791 
z
M 3481 434 
Q 3481 -459 3084 -895 
Q 2688 -1331 1869 -1331 
Q 1566 -1331 1297 -1286 
Q 1028 -1241 775 -1147 
L 775 -588 
Q 1028 -725 1275 -790 
Q 1522 -856 1778 -856 
Q 2344 -856 2625 -561 
Q 2906 -266 2906 331 
L 2906 616 
Q 2728 306 2450 153 
Q 2172 0 1784 0 
Q 1141 0 747 490 
Q 353 981 353 1791 
Q 353 2603 747 3093 
Q 1141 3584 1784 3584 
Q 2172 3584 2450 3431 
Q 2728 3278 2906 2969 
L 2906 3500 
L 3481 3500 
L 3481 434 
z
" transform="scale(0.015625)"/>
       <path id="DejaVuSans-6f" d="M 1959 3097 
Q 1497 3097 1228 2736 
Q 959 2375 959 1747 
Q 959 1119 1226 758 
Q 1494 397 1959 397 
Q 2419 397 2687 759 
Q 2956 1122 2956 1747 
Q 2956 2369 2687 2733 
Q 2419 3097 1959 3097 
z
M 1959 3584 
Q 2709 3584 3137 3096 
Q 3566 2609 3566 1747 
Q 3566 888 3137 398 
Q 2709 -91 1959 -91 
Q 1206 -91 779 398 
Q 353 888 353 1747 
Q 353 2609 779 3096 
Q 1206 3584 1959 3584 
z
" transform="scale(0.015625)"/>
       <path id="DejaVuSans-15b" d="M 2242 5119 
L 2864 5119 
L 1846 3944 
L 1367 3944 
L 2242 5119 
z
M 2834 3397 
L 2834 2853 
Q 2591 2978 2328 3040 
Q 2066 3103 1784 3103 
Q 1356 3103 1142 2972 
Q 928 2841 928 2578 
Q 928 2378 1081 2264 
Q 1234 2150 1697 2047 
L 1894 2003 
Q 2506 1872 2764 1633 
Q 3022 1394 3022 966 
Q 3022 478 2636 193 
Q 2250 -91 1575 -91 
Q 1294 -91 989 -36 
Q 684 19 347 128 
L 347 722 
Q 666 556 975 473 
Q 1284 391 1588 391 
Q 1994 391 2212 530 
Q 2431 669 2431 922 
Q 2431 1156 2273 1281 
Q 2116 1406 1581 1522 
L 1381 1569 
Q 847 1681 609 1914 
Q 372 2147 372 2553 
Q 372 3047 722 3315 
Q 1072 3584 1716 3584 
Q 2034 3584 2315 3537 
Q 2597 3491 2834 3397 
z
" transform="scale(0.015625)"/>
       <path id="DejaVuSans-107" d="M 3122 3366 
L 3122 2828 
Q 2878 2963 2633 3030 
Q 2388 3097 2138 3097 
Q 1578 3097 1268 2742 
Q 959 2388 959 1747 
Q 959 1106 1268 751 
Q 1578 397 2138 397 
Q 2388 397 2633 464 
Q 2878 531 3122 666 
L 3122 134 
Q 2881 22 2623 -34 
Q 2366 -91 2075 -91 
Q 1284 -91 818 406 
Q 353 903 353 1747 
Q 353 2603 823 3093 
Q 1294 3584 2113 3584 
Q 2378 3584 2631 3529 
Q 2884 3475 3122 3366 
z
M 2466 5119 
L 3088 5119 
L 2070 3944 
L 1591 3944 
L 2466 5119 
z
" transform="scale(0.015625)"/>
       <path id="DejaVuSans-20" transform="scale(0.015625)"/>
       <path id="DejaVuSans-73" d="M 2834 3397 
L 2834 2853 
Q 2591 2978 2328 3040 
Q 2066 3103 1784 3103 
Q 1356 3103 1142 2972 
Q 928 2841 928 2578 
Q 928 2378 1081 2264 
Q 1234 2150 1697 2047 
L 1894 2003 
Q 2506 1872 2764 1633 
Q 3022 1394 3022 966 
Q 3022 478 2636 193 
Q 2250 -91 1575 -91 
Q 1294 -91 989 -36 
Q 684 19 347 128 
L 347 722 
Q 666 556 975 473 
Q 1284 391 1588 391 
Q 1994 391 2212 530 
Q 2431 669 2431 922 
Q 2431 1156 2273 1281 
Q 2116 1406 1581 1522 
L 1381 1569 
Q 847 1681 609 1914 
Q 372 2147 372 2553 
Q 372 3047 722 3315 
Q 1072 3584 1716 3584 
Q 2034 3584 2315 3537 
Q 2597 3491 2834 3397 
z
" transform="scale(0.015625)"/>
       <path id="DejaVuSans-65" d="M 3597 1894 
L 3597 1613 
L 953 1613 
Q 991 1019 1311 708 
Q 1631 397 2203 397 
Q 2534 397 2845 478 
Q 3156 559 3463 722 
L 3463 178 
Q 3153 47 2828 -22 
Q 2503 -91 2169 -91 
Q 1331 -91 842 396 
Q 353 884 353 1716 
Q 353 2575 817 3079 
Q 1281 3584 2069 3584 
Q 2775 3584 3186 3129 
Q 3597 2675 3597 1894 
z
M 3022 2063 
Q 3016 2534 2758 2815 
Q 2500 3097 2075 3097 
Q 1594 3097 1305 2825 
Q 1016 2553 972 2059 
L 3022 2063 
z
" transform="scale(0.015625)"/>
       <path id="DejaVuSans-6b" d="M 581 4863 
L 1159 4863 
L 1159 1991 
L 2875 3500 
L 3609 3500 
L 1753 1863 
L 3688 0 
L 2938 0 
L 1159 1709 
L 1159 0 
L 581 0 
L 581 4863 
z
" transform="scale(0.015625)"/>
       <path id="DejaVuSans-77" d="M 269 3500 
L 844 3500 
L 1563 769 
L 2278 3500 
L 2956 3500 
L 3675 769 
L 4391 3500 
L 4966 3500 
L 4050 0 
L 3372 0 
L 2619 2869 
L 1863 0 
L 1184 0 
L 269 3500 
z
" transform="scale(0.015625)"/>
       <path id="DejaVuSans-6e" d="M 3513 2113 
L 3513 0 
L 2938 0 
L 2938 2094 
Q 2938 2591 2744 2837 
Q 2550 3084 2163 3084 
Q 1697 3084 1428 2787 
Q 1159 2491 1159 1978 
L 1159 0 
L 581 0 
L 581 3500 
L 1159 3500 
L 1159 2956 
Q 1366 3272 1645 3428 
Q 1925 3584 2291 3584 
Q 2894 3584 3203 3211 
Q 3513 2838 3513 2113 
z
" transform="scale(0.015625)"/>
       <path id="DejaVuSans-63" d="M 3122 3366 
L 3122 2828 
Q 2878 2963 2633 3030 
Q 2388 3097 2138 3097 
Q 1578 3097 1268 2742 
Q 959 2388 959 1747 
Q 959 1106 1268 751 
Q 1578 397 2138 397 
Q 2388 397 2633 464 
Q 2878 531 3122 666 
L 3122 134 
Q 2881 22 2623 -34 
Q 2366 -91 2075 -91 
Q 1284 -91 818 406 
Q 353 903 353 1747 
Q 353 2603 823 3093 
Q 1294 3584 2113 3584 
Q 2378 3584 2631 3529 
Q 2884 3475 3122 3366 
z
" transform="scale(0.015625)"/>
       <path id="DejaVuSans-6a" d="M 603 3500 
L 1178 3500 
L 1178 -63 
Q 1178 -731 923 -1031 
Q 669 -1331 103 -1331 
L -116 -1331 
L -116 -844 
L 38 -844 
Q 366 -844 484 -692 
Q 603 -541 603 -63 
L 603 3500 
z
M 603 4863 
L 1178 4863 
L 1178 4134 
L 603 4134 
L 603 4863 
z
" transform="scale(0.015625)"/>
       <path id="DejaVuSans-69" d="M 603 3500 
L 1178 3500 
L 1178 0 
L 603 0 
L 603 3500 
z
M 603 4863 
L 1178 4863 
L 1178 4134 
L 603 4134 
L 603 4863 
z
" transform="scale(0.015625)"/>
      </defs>
      <use xlink:href="#DejaVuSans-44"/>
      <use xlink:href="#DejaVuSans-142" x="77.001953"/>
      <use xlink:href="#DejaVuSans-75" x="105.419922"/>
      <use xlink:href="#DejaVuSans-67" x="168.798828"/>
      <use xlink:href="#DejaVuSans-6f" x="232.275391"/>
      <use xlink:href="#DejaVuSans-15b" x="293.457031"/>
      <use xlink:href="#DejaVuSans-107" x="345.556641"/>
      <use xlink:href="#DejaVuSans-20" x="400.537109"/>
      <use xlink:href="#DejaVuSans-73" x="432.324219"/>
      <use xlink:href="#DejaVuSans-65" x="484.423828"/>
      <use xlink:href="#DejaVuSans-6b" x="545.947266"/>
      <use xlink:href="#DejaVuSans-77" x="603.857422"/>
      <use xlink:href="#DejaVuSans-65" x="685.644531"/>
      <use xlink:href="#DejaVuSans-6e" x="747.167969"/>
      <use xlink:href="#DejaVuSans-63" x="810.546875"/>
      <use xlink:href="#DejaVuSans-6a" x="865.527344"/>
      <use xlink:href="#DejaVuSans-69" x="893.310547"/>
     </g>
    </g>
   </g>
   <g id="matplotlib.axis_2">
    <g id="ytick_1">
     <g id="line2d_7">
      <defs>
       <path id="m54e5d7cc64" d="M 0 0 
L -3.5 0 
" style="stroke: #000000; stroke-width: 0.8"/>
      </defs>
      <g>
       <use xlink:href="#m54e5d7cc64" x="88.22" y="363.76" style="stroke: #000000; stroke-width: 0.8"/>
      </g>
     </g>
     <g id="text_8">
      <!-- 0 -->
      <g transform="translate(67.2225 372.118281) scale(0.22 -0.22)">
       <use xlink:href="#DejaVuSans-30"/>
      </g>
     </g>
    </g>
    <g id="ytick_2">
     <g id="line2d_8">
      <g>
       <use xlink:href="#m54e5d7cc64" x="88.22" y="327.118396" style="stroke: #000000; stroke-width: 0.8"/>
      </g>
     </g>
     <g id="text_9">
      <!-- 50 -->
      <g transform="translate(53.225 335.476677) scale(0.22 -0.22)">
       <use xlink:href="#DejaVuSans-35"/>
       <use xlink:href="#DejaVuSans-30" x="63.623047"/>
      </g>
     </g>
    </g>
    <g id="ytick_3">
     <g id="line2d_9">
      <g>
       <use xlink:href="#m54e5d7cc64" x="88.22" y="290.476792" style="stroke: #000000; stroke-width: 0.8"/>
      </g>
     </g>
     <g id="text_10">
      <!-- 100 -->
      <g transform="translate(39.2275 298.835073) scale(0.22 -0.22)">
       <use xlink:href="#DejaVuSans-31"/>
       <use xlink:href="#DejaVuSans-30" x="63.623047"/>
       <use xlink:href="#DejaVuSans-30" x="127.246094"/>
      </g>
     </g>
    </g>
    <g id="ytick_4">
     <g id="line2d_10">
      <g>
       <use xlink:href="#m54e5d7cc64" x="88.22" y="253.835188" style="stroke: #000000; stroke-width: 0.8"/>
      </g>
     </g>
     <g id="text_11">
      <!-- 150 -->
      <g transform="translate(39.2275 262.193469) scale(0.22 -0.22)">
       <use xlink:href="#DejaVuSans-31"/>
       <use xlink:href="#DejaVuSans-35" x="63.623047"/>
       <use xlink:href="#DejaVuSans-30" x="127.246094"/>
      </g>
     </g>
    </g>
    <g id="ytick_5">
     <g id="line2d_11">
      <g>
       <use xlink:href="#m54e5d7cc64" x="88.22" y="217.193584" style="stroke: #000000; stroke-width: 0.8"/>
      </g>
     </g>
     <g id="text_12">
      <!-- 200 -->
      <g transform="translate(39.2275 225.551865) scale(0.22 -0.22)">
       <use xlink:href="#DejaVuSans-32"/>
       <use xlink:href="#DejaVuSans-30" x="63.623047"/>
       <use xlink:href="#DejaVuSans-30" x="127.246094"/>
      </g>
     </g>
    </g>
    <g id="ytick_6">
     <g id="line2d_12">
      <g>
       <use xlink:href="#m54e5d7cc64" x="88.22" y="180.55198" style="stroke: #000000; stroke-width: 0.8"/>
      </g>
     </g>
     <g id="text_13">
      <!-- 250 -->
      <g transform="translate(39.2275 188.910261) scale(0.22 -0.22)">
       <use xlink:href="#DejaVuSans-32"/>
       <use xlink:href="#DejaVuSans-35" x="63.623047"/>
       <use xlink:href="#DejaVuSans-30" x="127.246094"/>
      </g>
     </g>
    </g>
    <g id="ytick_7">
     <g id="line2d_13">
      <g>
       <use xlink:href="#m54e5d7cc64" x="88.22" y="143.910376" style="stroke: #000000; stroke-width: 0.8"/>
      </g>
     </g>
     <g id="text_14">
      <!-- 300 -->
      <g transform="translate(39.2275 152.268657) scale(0.22 -0.22)">
       <use xlink:href="#DejaVuSans-33"/>
       <use xlink:href="#DejaVuSans-30" x="63.623047"/>
       <use xlink:href="#DejaVuSans-30" x="127.246094"/>
      </g>
     </g>
    </g>
    <g id="ytick_8">
     <g id="line2d_14">
      <g>
       <use xlink:href="#m54e5d7cc64" x="88.22" y="107.268772" style="stroke: #000000; stroke-width: 0.8"/>
      </g>
     </g>
     <g id="text_15">
      <!-- 350 -->
      <g transform="translate(39.2275 115.627053) scale(0.22 -0.22)">
       <use xlink:href="#DejaVuSans-33"/>
       <use xlink:href="#DejaVuSans-35" x="63.623047"/>
       <use xlink:href="#DejaVuSans-30" x="127.246094"/>
      </g>
     </g>
    </g>
    <g id="ytick_9">
     <g id="line2d_15">
      <g>
       <use xlink:href="#m54e5d7cc64" x="88.22" y="70.627168" style="stroke: #000000; stroke-width: 0.8"/>
      </g>
     </g>
     <g id="text_16">
      <!-- 400 -->
      <g transform="translate(39.2275 78.985449) scale(0.22 -0.22)">
       <use xlink:href="#DejaVuSans-34"/>
       <use xlink:href="#DejaVuSans-30" x="63.623047"/>
       <use xlink:href="#DejaVuSans-30" x="127.246094"/>
      </g>
     </g>
    </g>
    <g id="text_17">
     <!-- Liczba sekwencji -->
     <g transform="translate(30.028281 307.475156) rotate(-90) scale(0.25 -0.25)">
      <defs>
       <path id="DejaVuSans-4c" d="M 628 4666 
L 1259 4666 
L 1259 531 
L 3531 531 
L 3531 0 
L 628 0 
L 628 4666 
z
" transform="scale(0.015625)"/>
       <path id="DejaVuSans-7a" d="M 353 3500 
L 3084 3500 
L 3084 2975 
L 922 459 
L 3084 459 
L 3084 0 
L 275 0 
L 275 525 
L 2438 3041 
L 353 3041 
L 353 3500 
z
" transform="scale(0.015625)"/>
       <path id="DejaVuSans-62" d="M 3116 1747 
Q 3116 2381 2855 2742 
Q 2594 3103 2138 3103 
Q 1681 3103 1420 2742 
Q 1159 2381 1159 1747 
Q 1159 1113 1420 752 
Q 1681 391 2138 391 
Q 2594 391 2855 752 
Q 3116 1113 3116 1747 
z
M 1159 2969 
Q 1341 3281 1617 3432 
Q 1894 3584 2278 3584 
Q 2916 3584 3314 3078 
Q 3713 2572 3713 1747 
Q 3713 922 3314 415 
Q 2916 -91 2278 -91 
Q 1894 -91 1617 61 
Q 1341 213 1159 525 
L 1159 0 
L 581 0 
L 581 4863 
L 1159 4863 
L 1159 2969 
z
" transform="scale(0.015625)"/>
       <path id="DejaVuSans-61" d="M 2194 1759 
Q 1497 1759 1228 1600 
Q 959 1441 959 1056 
Q 959 750 1161 570 
Q 1363 391 1709 391 
Q 2188 391 2477 730 
Q 2766 1069 2766 1631 
L 2766 1759 
L 2194 1759 
z
M 3341 1997 
L 3341 0 
L 2766 0 
L 2766 531 
Q 2569 213 2275 61 
Q 1981 -91 1556 -91 
Q 1019 -91 701 211 
Q 384 513 384 1019 
Q 384 1609 779 1909 
Q 1175 2209 1959 2209 
L 2766 2209 
L 2766 2266 
Q 2766 2663 2505 2880 
Q 2244 3097 1772 3097 
Q 1472 3097 1187 3025 
Q 903 2953 641 2809 
L 641 3341 
Q 956 3463 1253 3523 
Q 1550 3584 1831 3584 
Q 2591 3584 2966 3190 
Q 3341 2797 3341 1997 
z
" transform="scale(0.015625)"/>
      </defs>
      <use xlink:href="#DejaVuSans-4c"/>
      <use xlink:href="#DejaVuSans-69" x="55.712891"/>
      <use xlink:href="#DejaVuSans-63" x="83.496094"/>
      <use xlink:href="#DejaVuSans-7a" x="138.476562"/>
      <use xlink:href="#DejaVuSans-62" x="190.966797"/>
      <use xlink:href="#DejaVuSans-61" x="254.443359"/>
      <use xlink:href="#DejaVuSans-20" x="315.722656"/>
      <use xlink:href="#DejaVuSans-73" x="347.509766"/>
      <use xlink:href="#DejaVuSans-65" x="399.609375"/>
      <use xlink:href="#DejaVuSans-6b" x="461.132812"/>
      <use xlink:href="#DejaVuSans-77" x="519.042969"/>
      <use xlink:href="#DejaVuSans-65" x="600.830078"/>
      <use xlink:href="#DejaVuSans-6e" x="662.353516"/>
      <use xlink:href="#DejaVuSans-63" x="725.732422"/>
      <use xlink:href="#DejaVuSans-6a" x="780.712891"/>
      <use xlink:href="#DejaVuSans-69" x="808.496094"/>
     </g>
    </g>
   </g>
   <g id="patch_53">
    <path d="M 88.22 363.76 
L 88.22 42.12 
" style="fill: none; stroke: #000000; stroke-width: 0.8; stroke-linejoin: miter; stroke-linecap: square"/>
   </g>
   <g id="patch_54">
    <path d="M 88.22 363.76 
L 433.575 363.76 
" style="fill: none; stroke: #000000; stroke-width: 0.8; stroke-linejoin: miter; stroke-linecap: square"/>
   </g>
   <g id="text_18">
    <!-- Zbiór treningowy -->
    <g transform="translate(132.856094 35.880938) scale(0.3 -0.3)">
     <defs>
      <path id="DejaVuSans-5a" d="M 359 4666 
L 4025 4666 
L 4025 4184 
L 1075 531 
L 4097 531 
L 4097 0 
L 288 0 
L 288 481 
L 3238 4134 
L 359 4134 
L 359 4666 
z
" transform="scale(0.015625)"/>
      <path id="DejaVuSans-f3" d="M 1959 3097 
Q 1497 3097 1228 2736 
Q 959 2375 959 1747 
Q 959 1119 1226 758 
Q 1494 397 1959 397 
Q 2419 397 2687 759 
Q 2956 1122 2956 1747 
Q 2956 2369 2687 2733 
Q 2419 3097 1959 3097 
z
M 1959 3584 
Q 2709 3584 3137 3096 
Q 3566 2609 3566 1747 
Q 3566 888 3137 398 
Q 2709 -91 1959 -91 
Q 1206 -91 779 398 
Q 353 888 353 1747 
Q 353 2609 779 3096 
Q 1206 3584 1959 3584 
z
M 2394 5119 
L 3016 5119 
L 1998 3944 
L 1519 3944 
L 2394 5119 
z
" transform="scale(0.015625)"/>
      <path id="DejaVuSans-72" d="M 2631 2963 
Q 2534 3019 2420 3045 
Q 2306 3072 2169 3072 
Q 1681 3072 1420 2755 
Q 1159 2438 1159 1844 
L 1159 0 
L 581 0 
L 581 3500 
L 1159 3500 
L 1159 2956 
Q 1341 3275 1631 3429 
Q 1922 3584 2338 3584 
Q 2397 3584 2469 3576 
Q 2541 3569 2628 3553 
L 2631 2963 
z
" transform="scale(0.015625)"/>
      <path id="DejaVuSans-74" d="M 1172 4494 
L 1172 3500 
L 2356 3500 
L 2356 3053 
L 1172 3053 
L 1172 1153 
Q 1172 725 1289 603 
Q 1406 481 1766 481 
L 2356 481 
L 2356 0 
L 1766 0 
Q 1100 0 847 248 
Q 594 497 594 1153 
L 594 3053 
L 172 3053 
L 172 3500 
L 594 3500 
L 594 4494 
L 1172 4494 
z
" transform="scale(0.015625)"/>
      <path id="DejaVuSans-79" d="M 2059 -325 
Q 1816 -950 1584 -1140 
Q 1353 -1331 966 -1331 
L 506 -1331 
L 506 -850 
L 844 -850 
Q 1081 -850 1212 -737 
Q 1344 -625 1503 -206 
L 1606 56 
L 191 3500 
L 800 3500 
L 1894 763 
L 2988 3500 
L 3597 3500 
L 2059 -325 
z
" transform="scale(0.015625)"/>
     </defs>
     <use xlink:href="#DejaVuSans-5a"/>
     <use xlink:href="#DejaVuSans-62" x="68.505859"/>
     <use xlink:href="#DejaVuSans-69" x="131.982422"/>
     <use xlink:href="#DejaVuSans-f3" x="159.765625"/>
     <use xlink:href="#DejaVuSans-72" x="220.947266"/>
     <use xlink:href="#DejaVuSans-20" x="262.060547"/>
     <use xlink:href="#DejaVuSans-74" x="293.847656"/>
     <use xlink:href="#DejaVuSans-72" x="333.056641"/>
     <use xlink:href="#DejaVuSans-65" x="371.919922"/>
     <use xlink:href="#DejaVuSans-6e" x="433.443359"/>
     <use xlink:href="#DejaVuSans-69" x="496.822266"/>
     <use xlink:href="#DejaVuSans-6e" x="524.605469"/>
     <use xlink:href="#DejaVuSans-67" x="587.984375"/>
     <use xlink:href="#DejaVuSans-6f" x="651.460938"/>
     <use xlink:href="#DejaVuSans-77" x="712.642578"/>
     <use xlink:href="#DejaVuSans-79" x="794.429688"/>
    </g>
   </g>
  </g>
  <g id="axes_2">
   <g id="patch_55">
    <path d="M 507.845 363.76 
L 853.2 363.76 
L 853.2 42.12 
L 507.845 42.12 
z
" style="fill: #ffffff"/>
   </g>
   <g id="patch_56">
    <path d="M 523.542955 363.76 
L 532.513214 363.76 
L 532.513214 356.552381 
L 523.542955 356.552381 
z
" clip-path="url(#p9c4c6d928a)" style="fill: #008000; opacity: 0.7; stroke: #000000; stroke-linejoin: miter"/>
   </g>
   <g id="patch_57">
    <path d="M 532.513214 363.76 
L 541.483474 363.76 
L 541.483474 352.948571 
L 532.513214 352.948571 
z
" clip-path="url(#p9c4c6d928a)" style="fill: #008000; opacity: 0.7; stroke: #000000; stroke-linejoin: miter"/>
   </g>
   <g id="patch_58">
    <path d="M 541.483474 363.76 
L 550.453734 363.76 
L 550.453734 363.76 
L 541.483474 363.76 
z
" clip-path="url(#p9c4c6d928a)" style="fill: #008000; opacity: 0.7; stroke: #000000; stroke-linejoin: miter"/>
   </g>
   <g id="patch_59">
    <path d="M 550.453734 363.76 
L 559.423994 363.76 
L 559.423994 356.552381 
L 550.453734 356.552381 
z
" clip-path="url(#p9c4c6d928a)" style="fill: #008000; opacity: 0.7; stroke: #000000; stroke-linejoin: miter"/>
   </g>
   <g id="patch_60">
    <path d="M 559.423994 363.76 
L 568.394253 363.76 
L 568.394253 360.15619 
L 559.423994 360.15619 
z
" clip-path="url(#p9c4c6d928a)" style="fill: #008000; opacity: 0.7; stroke: #000000; stroke-linejoin: miter"/>
   </g>
   <g id="patch_61">
    <path d="M 568.394253 363.76 
L 577.364513 363.76 
L 577.364513 345.740952 
L 568.394253 345.740952 
z
" clip-path="url(#p9c4c6d928a)" style="fill: #008000; opacity: 0.7; stroke: #000000; stroke-linejoin: miter"/>
   </g>
   <g id="patch_62">
    <path d="M 577.364513 363.76 
L 586.334773 363.76 
L 586.334773 349.344762 
L 577.364513 349.344762 
z
" clip-path="url(#p9c4c6d928a)" style="fill: #008000; opacity: 0.7; stroke: #000000; stroke-linejoin: miter"/>
   </g>
   <g id="patch_63">
    <path d="M 586.334773 363.76 
L 595.305032 363.76 
L 595.305032 306.099048 
L 586.334773 306.099048 
z
" clip-path="url(#p9c4c6d928a)" style="fill: #008000; opacity: 0.7; stroke: #000000; stroke-linejoin: miter"/>
   </g>
   <g id="patch_64">
    <path d="M 595.305032 363.76 
L 604.275292 363.76 
L 604.275292 288.08 
L 595.305032 288.08 
z
" clip-path="url(#p9c4c6d928a)" style="fill: #008000; opacity: 0.7; stroke: #000000; stroke-linejoin: miter"/>
   </g>
   <g id="patch_65">
    <path d="M 604.275292 363.76 
L 613.245552 363.76 
L 613.245552 57.43619 
L 604.275292 57.43619 
z
" clip-path="url(#p9c4c6d928a)" style="fill: #008000; opacity: 0.7; stroke: #000000; stroke-linejoin: miter"/>
   </g>
   <g id="patch_66">
    <path d="M 613.245552 363.76 
L 622.215812 363.76 
L 622.215812 295.287619 
L 613.245552 295.287619 
z
" clip-path="url(#p9c4c6d928a)" style="fill: #008000; opacity: 0.7; stroke: #000000; stroke-linejoin: miter"/>
   </g>
   <g id="patch_67">
    <path d="M 622.215812 363.76 
L 631.186071 363.76 
L 631.186071 298.891429 
L 622.215812 298.891429 
z
" clip-path="url(#p9c4c6d928a)" style="fill: #008000; opacity: 0.7; stroke: #000000; stroke-linejoin: miter"/>
   </g>
   <g id="patch_68">
    <path d="M 631.186071 363.76 
L 640.156331 363.76 
L 640.156331 352.948571 
L 631.186071 352.948571 
z
" clip-path="url(#p9c4c6d928a)" style="fill: #008000; opacity: 0.7; stroke: #000000; stroke-linejoin: miter"/>
   </g>
   <g id="patch_69">
    <path d="M 640.156331 363.76 
L 649.126591 363.76 
L 649.126591 331.325714 
L 640.156331 331.325714 
z
" clip-path="url(#p9c4c6d928a)" style="fill: #008000; opacity: 0.7; stroke: #000000; stroke-linejoin: miter"/>
   </g>
   <g id="patch_70">
    <path d="M 649.126591 363.76 
L 658.096851 363.76 
L 658.096851 320.514286 
L 649.126591 320.514286 
z
" clip-path="url(#p9c4c6d928a)" style="fill: #008000; opacity: 0.7; stroke: #000000; stroke-linejoin: miter"/>
   </g>
   <g id="patch_71">
    <path d="M 658.096851 363.76 
L 667.06711 363.76 
L 667.06711 331.325714 
L 658.096851 331.325714 
z
" clip-path="url(#p9c4c6d928a)" style="fill: #008000; opacity: 0.7; stroke: #000000; stroke-linejoin: miter"/>
   </g>
   <g id="patch_72">
    <path d="M 667.06711 363.76 
L 676.03737 363.76 
L 676.03737 349.344762 
L 667.06711 349.344762 
z
" clip-path="url(#p9c4c6d928a)" style="fill: #008000; opacity: 0.7; stroke: #000000; stroke-linejoin: miter"/>
   </g>
   <g id="patch_73">
    <path d="M 676.03737 363.76 
L 685.00763 363.76 
L 685.00763 349.344762 
L 676.03737 349.344762 
z
" clip-path="url(#p9c4c6d928a)" style="fill: #008000; opacity: 0.7; stroke: #000000; stroke-linejoin: miter"/>
   </g>
   <g id="patch_74">
    <path d="M 685.00763 363.76 
L 693.97789 363.76 
L 693.97789 363.76 
L 685.00763 363.76 
z
" clip-path="url(#p9c4c6d928a)" style="fill: #008000; opacity: 0.7; stroke: #000000; stroke-linejoin: miter"/>
   </g>
   <g id="patch_75">
    <path d="M 693.97789 363.76 
L 702.948149 363.76 
L 702.948149 363.76 
L 693.97789 363.76 
z
" clip-path="url(#p9c4c6d928a)" style="fill: #008000; opacity: 0.7; stroke: #000000; stroke-linejoin: miter"/>
   </g>
   <g id="patch_76">
    <path d="M 702.948149 363.76 
L 711.918409 363.76 
L 711.918409 363.76 
L 702.948149 363.76 
z
" clip-path="url(#p9c4c6d928a)" style="fill: #008000; opacity: 0.7; stroke: #000000; stroke-linejoin: miter"/>
   </g>
   <g id="patch_77">
    <path d="M 711.918409 363.76 
L 720.888669 363.76 
L 720.888669 360.15619 
L 711.918409 360.15619 
z
" clip-path="url(#p9c4c6d928a)" style="fill: #008000; opacity: 0.7; stroke: #000000; stroke-linejoin: miter"/>
   </g>
   <g id="patch_78">
    <path d="M 720.888669 363.76 
L 729.858929 363.76 
L 729.858929 363.76 
L 720.888669 363.76 
z
" clip-path="url(#p9c4c6d928a)" style="fill: #008000; opacity: 0.7; stroke: #000000; stroke-linejoin: miter"/>
   </g>
   <g id="patch_79">
    <path d="M 729.858929 363.76 
L 738.829188 363.76 
L 738.829188 363.76 
L 729.858929 363.76 
z
" clip-path="url(#p9c4c6d928a)" style="fill: #008000; opacity: 0.7; stroke: #000000; stroke-linejoin: miter"/>
   </g>
   <g id="patch_80">
    <path d="M 738.829188 363.76 
L 747.799448 363.76 
L 747.799448 363.76 
L 738.829188 363.76 
z
" clip-path="url(#p9c4c6d928a)" style="fill: #008000; opacity: 0.7; stroke: #000000; stroke-linejoin: miter"/>
   </g>
   <g id="patch_81">
    <path d="M 747.799448 363.76 
L 756.769708 363.76 
L 756.769708 363.76 
L 747.799448 363.76 
z
" clip-path="url(#p9c4c6d928a)" style="fill: #008000; opacity: 0.7; stroke: #000000; stroke-linejoin: miter"/>
   </g>
   <g id="patch_82">
    <path d="M 756.769708 363.76 
L 765.739968 363.76 
L 765.739968 363.76 
L 756.769708 363.76 
z
" clip-path="url(#p9c4c6d928a)" style="fill: #008000; opacity: 0.7; stroke: #000000; stroke-linejoin: miter"/>
   </g>
   <g id="patch_83">
    <path d="M 765.739968 363.76 
L 774.710227 363.76 
L 774.710227 363.76 
L 765.739968 363.76 
z
" clip-path="url(#p9c4c6d928a)" style="fill: #008000; opacity: 0.7; stroke: #000000; stroke-linejoin: miter"/>
   </g>
   <g id="patch_84">
    <path d="M 774.710227 363.76 
L 783.680487 363.76 
L 783.680487 363.76 
L 774.710227 363.76 
z
" clip-path="url(#p9c4c6d928a)" style="fill: #008000; opacity: 0.7; stroke: #000000; stroke-linejoin: miter"/>
   </g>
   <g id="patch_85">
    <path d="M 783.680487 363.76 
L 792.650747 363.76 
L 792.650747 363.76 
L 783.680487 363.76 
z
" clip-path="url(#p9c4c6d928a)" style="fill: #008000; opacity: 0.7; stroke: #000000; stroke-linejoin: miter"/>
   </g>
   <g id="patch_86">
    <path d="M 792.650747 363.76 
L 801.621006 363.76 
L 801.621006 363.76 
L 792.650747 363.76 
z
" clip-path="url(#p9c4c6d928a)" style="fill: #008000; opacity: 0.7; stroke: #000000; stroke-linejoin: miter"/>
   </g>
   <g id="patch_87">
    <path d="M 801.621006 363.76 
L 810.591266 363.76 
L 810.591266 363.76 
L 801.621006 363.76 
z
" clip-path="url(#p9c4c6d928a)" style="fill: #008000; opacity: 0.7; stroke: #000000; stroke-linejoin: miter"/>
   </g>
   <g id="patch_88">
    <path d="M 810.591266 363.76 
L 819.561526 363.76 
L 819.561526 363.76 
L 810.591266 363.76 
z
" clip-path="url(#p9c4c6d928a)" style="fill: #008000; opacity: 0.7; stroke: #000000; stroke-linejoin: miter"/>
   </g>
   <g id="patch_89">
    <path d="M 819.561526 363.76 
L 828.531786 363.76 
L 828.531786 363.76 
L 819.561526 363.76 
z
" clip-path="url(#p9c4c6d928a)" style="fill: #008000; opacity: 0.7; stroke: #000000; stroke-linejoin: miter"/>
   </g>
   <g id="patch_90">
    <path d="M 828.531786 363.76 
L 837.502045 363.76 
L 837.502045 360.15619 
L 828.531786 360.15619 
z
" clip-path="url(#p9c4c6d928a)" style="fill: #008000; opacity: 0.7; stroke: #000000; stroke-linejoin: miter"/>
   </g>
   <g id="matplotlib.axis_3">
    <g id="xtick_7">
     <g id="line2d_16">
      <g>
       <use xlink:href="#m0425f71c79" x="515.057574" y="363.76" style="stroke: #000000; stroke-width: 0.8"/>
      </g>
     </g>
     <g id="text_19">
      <!-- 10 -->
      <g transform="translate(501.060074 387.476562) scale(0.22 -0.22)">
       <use xlink:href="#DejaVuSans-31"/>
       <use xlink:href="#DejaVuSans-30" x="63.623047"/>
      </g>
     </g>
    </g>
    <g id="xtick_8">
     <g id="line2d_17">
      <g>
       <use xlink:href="#m0425f71c79" x="557.484478" y="363.76" style="stroke: #000000; stroke-width: 0.8"/>
      </g>
     </g>
     <g id="text_20">
      <!-- 15 -->
      <g transform="translate(543.486978 387.476562) scale(0.22 -0.22)">
       <use xlink:href="#DejaVuSans-31"/>
       <use xlink:href="#DejaVuSans-35" x="63.623047"/>
      </g>
     </g>
    </g>
    <g id="xtick_9">
     <g id="line2d_18">
      <g>
       <use xlink:href="#m0425f71c79" x="599.911382" y="363.76" style="stroke: #000000; stroke-width: 0.8"/>
      </g>
     </g>
     <g id="text_21">
      <!-- 20 -->
      <g transform="translate(585.913882 387.476562) scale(0.22 -0.22)">
       <use xlink:href="#DejaVuSans-32"/>
       <use xlink:href="#DejaVuSans-30" x="63.623047"/>
      </g>
     </g>
    </g>
    <g id="xtick_10">
     <g id="line2d_19">
      <g>
       <use xlink:href="#m0425f71c79" x="642.338286" y="363.76" style="stroke: #000000; stroke-width: 0.8"/>
      </g>
     </g>
     <g id="text_22">
      <!-- 25 -->
      <g transform="translate(628.340786 387.476562) scale(0.22 -0.22)">
       <use xlink:href="#DejaVuSans-32"/>
       <use xlink:href="#DejaVuSans-35" x="63.623047"/>
      </g>
     </g>
    </g>
    <g id="xtick_11">
     <g id="line2d_20">
      <g>
       <use xlink:href="#m0425f71c79" x="684.76519" y="363.76" style="stroke: #000000; stroke-width: 0.8"/>
      </g>
     </g>
     <g id="text_23">
      <!-- 30 -->
      <g transform="translate(670.76769 387.476562) scale(0.22 -0.22)">
       <use xlink:href="#DejaVuSans-33"/>
       <use xlink:href="#DejaVuSans-30" x="63.623047"/>
      </g>
     </g>
    </g>
    <g id="xtick_12">
     <g id="line2d_21">
      <g>
       <use xlink:href="#m0425f71c79" x="727.192095" y="363.76" style="stroke: #000000; stroke-width: 0.8"/>
      </g>
     </g>
     <g id="text_24">
      <!-- 35 -->
      <g transform="translate(713.194595 387.476562) scale(0.22 -0.22)">
       <use xlink:href="#DejaVuSans-33"/>
       <use xlink:href="#DejaVuSans-35" x="63.623047"/>
      </g>
     </g>
    </g>
    <g id="xtick_13">
     <g id="line2d_22">
      <g>
       <use xlink:href="#m0425f71c79" x="769.618999" y="363.76" style="stroke: #000000; stroke-width: 0.8"/>
      </g>
     </g>
     <g id="text_25">
      <!-- 40 -->
      <g transform="translate(755.621499 387.476562) scale(0.22 -0.22)">
       <use xlink:href="#DejaVuSans-34"/>
       <use xlink:href="#DejaVuSans-30" x="63.623047"/>
      </g>
     </g>
    </g>
    <g id="xtick_14">
     <g id="line2d_23">
      <g>
       <use xlink:href="#m0425f71c79" x="812.045903" y="363.76" style="stroke: #000000; stroke-width: 0.8"/>
      </g>
     </g>
     <g id="text_26">
      <!-- 45 -->
      <g transform="translate(798.048403 387.476562) scale(0.22 -0.22)">
       <use xlink:href="#DejaVuSans-34"/>
       <use xlink:href="#DejaVuSans-35" x="63.623047"/>
      </g>
     </g>
    </g>
    <g id="text_27">
     <!-- Długość sekwencji -->
     <g transform="translate(565.385781 416.047969) scale(0.25 -0.25)">
      <use xlink:href="#DejaVuSans-44"/>
      <use xlink:href="#DejaVuSans-142" x="77.001953"/>
      <use xlink:href="#DejaVuSans-75" x="105.419922"/>
      <use xlink:href="#DejaVuSans-67" x="168.798828"/>
      <use xlink:href="#DejaVuSans-6f" x="232.275391"/>
      <use xlink:href="#DejaVuSans-15b" x="293.457031"/>
      <use xlink:href="#DejaVuSans-107" x="345.556641"/>
      <use xlink:href="#DejaVuSans-20" x="400.537109"/>
      <use xlink:href="#DejaVuSans-73" x="432.324219"/>
      <use xlink:href="#DejaVuSans-65" x="484.423828"/>
      <use xlink:href="#DejaVuSans-6b" x="545.947266"/>
      <use xlink:href="#DejaVuSans-77" x="603.857422"/>
      <use xlink:href="#DejaVuSans-65" x="685.644531"/>
      <use xlink:href="#DejaVuSans-6e" x="747.167969"/>
      <use xlink:href="#DejaVuSans-63" x="810.546875"/>
      <use xlink:href="#DejaVuSans-6a" x="865.527344"/>
      <use xlink:href="#DejaVuSans-69" x="893.310547"/>
     </g>
    </g>
   </g>
   <g id="matplotlib.axis_4">
    <g id="ytick_10">
     <g id="line2d_24">
      <g>
       <use xlink:href="#m54e5d7cc64" x="507.845" y="363.76" style="stroke: #000000; stroke-width: 0.8"/>
      </g>
     </g>
     <g id="text_28">
      <!-- 0 -->
      <g transform="translate(486.8475 372.118281) scale(0.22 -0.22)">
       <use xlink:href="#DejaVuSans-30"/>
      </g>
     </g>
    </g>
    <g id="ytick_11">
     <g id="line2d_25">
      <g>
       <use xlink:href="#m54e5d7cc64" x="507.845" y="327.721905" style="stroke: #000000; stroke-width: 0.8"/>
      </g>
     </g>
     <g id="text_29">
      <!-- 10 -->
      <g transform="translate(472.85 336.080186) scale(0.22 -0.22)">
       <use xlink:href="#DejaVuSans-31"/>
       <use xlink:href="#DejaVuSans-30" x="63.623047"/>
      </g>
     </g>
    </g>
    <g id="ytick_12">
     <g id="line2d_26">
      <g>
       <use xlink:href="#m54e5d7cc64" x="507.845" y="291.68381" style="stroke: #000000; stroke-width: 0.8"/>
      </g>
     </g>
     <g id="text_30">
      <!-- 20 -->
      <g transform="translate(472.85 300.042091) scale(0.22 -0.22)">
       <use xlink:href="#DejaVuSans-32"/>
       <use xlink:href="#DejaVuSans-30" x="63.623047"/>
      </g>
     </g>
    </g>
    <g id="ytick_13">
     <g id="line2d_27">
      <g>
       <use xlink:href="#m54e5d7cc64" x="507.845" y="255.645714" style="stroke: #000000; stroke-width: 0.8"/>
      </g>
     </g>
     <g id="text_31">
      <!-- 30 -->
      <g transform="translate(472.85 264.003996) scale(0.22 -0.22)">
       <use xlink:href="#DejaVuSans-33"/>
       <use xlink:href="#DejaVuSans-30" x="63.623047"/>
      </g>
     </g>
    </g>
    <g id="ytick_14">
     <g id="line2d_28">
      <g>
       <use xlink:href="#m54e5d7cc64" x="507.845" y="219.607619" style="stroke: #000000; stroke-width: 0.8"/>
      </g>
     </g>
     <g id="text_32">
      <!-- 40 -->
      <g transform="translate(472.85 227.9659) scale(0.22 -0.22)">
       <use xlink:href="#DejaVuSans-34"/>
       <use xlink:href="#DejaVuSans-30" x="63.623047"/>
      </g>
     </g>
    </g>
    <g id="ytick_15">
     <g id="line2d_29">
      <g>
       <use xlink:href="#m54e5d7cc64" x="507.845" y="183.569524" style="stroke: #000000; stroke-width: 0.8"/>
      </g>
     </g>
     <g id="text_33">
      <!-- 50 -->
      <g transform="translate(472.85 191.927805) scale(0.22 -0.22)">
       <use xlink:href="#DejaVuSans-35"/>
       <use xlink:href="#DejaVuSans-30" x="63.623047"/>
      </g>
     </g>
    </g>
    <g id="ytick_16">
     <g id="line2d_30">
      <g>
       <use xlink:href="#m54e5d7cc64" x="507.845" y="147.531429" style="stroke: #000000; stroke-width: 0.8"/>
      </g>
     </g>
     <g id="text_34">
      <!-- 60 -->
      <g transform="translate(472.85 155.88971) scale(0.22 -0.22)">
       <use xlink:href="#DejaVuSans-36"/>
       <use xlink:href="#DejaVuSans-30" x="63.623047"/>
      </g>
     </g>
    </g>
    <g id="ytick_17">
     <g id="line2d_31">
      <g>
       <use xlink:href="#m54e5d7cc64" x="507.845" y="111.493333" style="stroke: #000000; stroke-width: 0.8"/>
      </g>
     </g>
     <g id="text_35">
      <!-- 70 -->
      <g transform="translate(472.85 119.851615) scale(0.22 -0.22)">
       <defs>
        <path id="DejaVuSans-37" d="M 525 4666 
L 3525 4666 
L 3525 4397 
L 1831 0 
L 1172 0 
L 2766 4134 
L 525 4134 
L 525 4666 
z
" transform="scale(0.015625)"/>
       </defs>
       <use xlink:href="#DejaVuSans-37"/>
       <use xlink:href="#DejaVuSans-30" x="63.623047"/>
      </g>
     </g>
    </g>
    <g id="ytick_18">
     <g id="line2d_32">
      <g>
       <use xlink:href="#m54e5d7cc64" x="507.845" y="75.455238" style="stroke: #000000; stroke-width: 0.8"/>
      </g>
     </g>
     <g id="text_36">
      <!-- 80 -->
      <g transform="translate(472.85 83.813519) scale(0.22 -0.22)">
       <defs>
        <path id="DejaVuSans-38" d="M 2034 2216 
Q 1584 2216 1326 1975 
Q 1069 1734 1069 1313 
Q 1069 891 1326 650 
Q 1584 409 2034 409 
Q 2484 409 2743 651 
Q 3003 894 3003 1313 
Q 3003 1734 2745 1975 
Q 2488 2216 2034 2216 
z
M 1403 2484 
Q 997 2584 770 2862 
Q 544 3141 544 3541 
Q 544 4100 942 4425 
Q 1341 4750 2034 4750 
Q 2731 4750 3128 4425 
Q 3525 4100 3525 3541 
Q 3525 3141 3298 2862 
Q 3072 2584 2669 2484 
Q 3125 2378 3379 2068 
Q 3634 1759 3634 1313 
Q 3634 634 3220 271 
Q 2806 -91 2034 -91 
Q 1263 -91 848 271 
Q 434 634 434 1313 
Q 434 1759 690 2068 
Q 947 2378 1403 2484 
z
M 1172 3481 
Q 1172 3119 1398 2916 
Q 1625 2713 2034 2713 
Q 2441 2713 2670 2916 
Q 2900 3119 2900 3481 
Q 2900 3844 2670 4047 
Q 2441 4250 2034 4250 
Q 1625 4250 1398 4047 
Q 1172 3844 1172 3481 
z
" transform="scale(0.015625)"/>
       </defs>
       <use xlink:href="#DejaVuSans-38"/>
       <use xlink:href="#DejaVuSans-30" x="63.623047"/>
      </g>
     </g>
    </g>
    <g id="text_37">
     <!-- Liczba sekwencji -->
     <g transform="translate(463.650781 307.475156) rotate(-90) scale(0.25 -0.25)">
      <use xlink:href="#DejaVuSans-4c"/>
      <use xlink:href="#DejaVuSans-69" x="55.712891"/>
      <use xlink:href="#DejaVuSans-63" x="83.496094"/>
      <use xlink:href="#DejaVuSans-7a" x="138.476562"/>
      <use xlink:href="#DejaVuSans-62" x="190.966797"/>
      <use xlink:href="#DejaVuSans-61" x="254.443359"/>
      <use xlink:href="#DejaVuSans-20" x="315.722656"/>
      <use xlink:href="#DejaVuSans-73" x="347.509766"/>
      <use xlink:href="#DejaVuSans-65" x="399.609375"/>
      <use xlink:href="#DejaVuSans-6b" x="461.132812"/>
      <use xlink:href="#DejaVuSans-77" x="519.042969"/>
      <use xlink:href="#DejaVuSans-65" x="600.830078"/>
      <use xlink:href="#DejaVuSans-6e" x="662.353516"/>
      <use xlink:href="#DejaVuSans-63" x="725.732422"/>
      <use xlink:href="#DejaVuSans-6a" x="780.712891"/>
      <use xlink:href="#DejaVuSans-69" x="808.496094"/>
     </g>
    </g>
   </g>
   <g id="patch_91">
    <path d="M 507.845 363.76 
L 507.845 42.12 
" style="fill: none; stroke: #000000; stroke-width: 0.8; stroke-linejoin: miter; stroke-linecap: square"/>
   </g>
   <g id="patch_92">
    <path d="M 507.845 363.76 
L 853.2 363.76 
" style="fill: none; stroke: #000000; stroke-width: 0.8; stroke-linejoin: miter; stroke-linecap: square"/>
   </g>
   <g id="text_38">
    <!-- Zbiór walidacyjny -->
    <g transform="translate(548.26 35.880938) scale(0.3 -0.3)">
     <defs>
      <path id="DejaVuSans-6c" d="M 603 4863 
L 1178 4863 
L 1178 0 
L 603 0 
L 603 4863 
z
" transform="scale(0.015625)"/>
      <path id="DejaVuSans-64" d="M 2906 2969 
L 2906 4863 
L 3481 4863 
L 3481 0 
L 2906 0 
L 2906 525 
Q 2725 213 2448 61 
Q 2172 -91 1784 -91 
Q 1150 -91 751 415 
Q 353 922 353 1747 
Q 353 2572 751 3078 
Q 1150 3584 1784 3584 
Q 2172 3584 2448 3432 
Q 2725 3281 2906 2969 
z
M 947 1747 
Q 947 1113 1208 752 
Q 1469 391 1925 391 
Q 2381 391 2643 752 
Q 2906 1113 2906 1747 
Q 2906 2381 2643 2742 
Q 2381 3103 1925 3103 
Q 1469 3103 1208 2742 
Q 947 2381 947 1747 
z
" transform="scale(0.015625)"/>
     </defs>
     <use xlink:href="#DejaVuSans-5a"/>
     <use xlink:href="#DejaVuSans-62" x="68.505859"/>
     <use xlink:href="#DejaVuSans-69" x="131.982422"/>
     <use xlink:href="#DejaVuSans-f3" x="159.765625"/>
     <use xlink:href="#DejaVuSans-72" x="220.947266"/>
     <use xlink:href="#DejaVuSans-20" x="262.060547"/>
     <use xlink:href="#DejaVuSans-77" x="293.847656"/>
     <use xlink:href="#DejaVuSans-61" x="375.634766"/>
     <use xlink:href="#DejaVuSans-6c" x="436.914062"/>
     <use xlink:href="#DejaVuSans-69" x="464.697266"/>
     <use xlink:href="#DejaVuSans-64" x="492.480469"/>
     <use xlink:href="#DejaVuSans-61" x="555.957031"/>
     <use xlink:href="#DejaVuSans-63" x="617.236328"/>
     <use xlink:href="#DejaVuSans-79" x="672.216797"/>
     <use xlink:href="#DejaVuSans-6a" x="731.396484"/>
     <use xlink:href="#DejaVuSans-6e" x="759.179688"/>
     <use xlink:href="#DejaVuSans-79" x="822.558594"/>
    </g>
   </g>
  </g>
 </g>
 <defs>
  <clipPath id="p5167d7d1d6">
   <rect x="88.22" y="42.12" width="345.355" height="321.64"/>
  </clipPath>
  <clipPath id="p9c4c6d928a">
   <rect x="507.845" y="42.12" width="345.355" height="321.64"/>
  </clipPath>
 </defs>
</svg>
