<?xml version="1.0" encoding="utf-8" standalone="no"?>
<!DOCTYPE svg PUBLIC "-//W3C//DTD SVG 1.1//EN"
  "http://www.w3.org/Graphics/SVG/1.1/DTD/svg11.dtd">
<svg xmlns:xlink="http://www.w3.org/1999/xlink" width="720pt" height="432pt" viewBox="0 0 720 432" xmlns="http://www.w3.org/2000/svg" version="1.1">
 <metadata>
  <rdf:RDF xmlns:dc="http://purl.org/dc/elements/1.1/" xmlns:cc="http://creativecommons.org/ns#" xmlns:rdf="http://www.w3.org/1999/02/22-rdf-syntax-ns#">
   <cc:Work>
    <dc:type rdf:resource="http://purl.org/dc/dcmitype/StillImage"/>
    <dc:date>2024-12-29T23:59:31.768581</dc:date>
    <dc:format>image/svg+xml</dc:format>
    <dc:creator>
     <cc:Agent>
      <dc:title>Matplotlib v3.8.0, https://matplotlib.org/</dc:title>
     </cc:Agent>
    </dc:creator>
   </cc:Work>
  </rdf:RDF>
 </metadata>
 <defs>
  <style type="text/css">*{stroke-linejoin: round; stroke-linecap: butt}</style>
 </defs>
 <g id="figure_1">
  <g id="patch_1">
   <path d="M 0 432 
L 720 432 
L 720 0 
L 0 0 
z
" style="fill: #ffffff"/>
  </g>
  <g id="axes_1">
   <g id="patch_2">
    <path d="M 90 384.48 
L 648 384.48 
L 648 51.84 
L 90 51.84 
z
" style="fill: #ffffff"/>
   </g>
   <g id="matplotlib.axis_1">
    <g id="xtick_1">
     <g id="line2d_1">
      <defs>
       <path id="mf8b5e85282" d="M 0 0 
L 0 3.5 
" style="stroke: #000000; stroke-width: 0.8"/>
      </defs>
      <g>
       <use xlink:href="#mf8b5e85282" x="121" y="384.48" style="stroke: #000000; stroke-width: 0.8"/>
      </g>
     </g>
     <g id="text_1">
      <!-- Bazowy -->
      <g transform="translate(116.45675 458.475) rotate(-90) scale(0.16 -0.16)">
       <defs>
        <path id="DejaVuSans-42" d="M 1259 2228 
L 1259 519 
L 2272 519 
Q 2781 519 3026 730 
Q 3272 941 3272 1375 
Q 3272 1813 3026 2020 
Q 2781 2228 2272 2228 
L 1259 2228 
z
M 1259 4147 
L 1259 2741 
L 2194 2741 
Q 2656 2741 2882 2914 
Q 3109 3088 3109 3444 
Q 3109 3797 2882 3972 
Q 2656 4147 2194 4147 
L 1259 4147 
z
M 628 4666 
L 2241 4666 
Q 2963 4666 3353 4366 
Q 3744 4066 3744 3513 
Q 3744 3084 3544 2831 
Q 3344 2578 2956 2516 
Q 3422 2416 3680 2098 
Q 3938 1781 3938 1306 
Q 3938 681 3513 340 
Q 3088 0 2303 0 
L 628 0 
L 628 4666 
z
" transform="scale(0.015625)"/>
        <path id="DejaVuSans-61" d="M 2194 1759 
Q 1497 1759 1228 1600 
Q 959 1441 959 1056 
Q 959 750 1161 570 
Q 1363 391 1709 391 
Q 2188 391 2477 730 
Q 2766 1069 2766 1631 
L 2766 1759 
L 2194 1759 
z
M 3341 1997 
L 3341 0 
L 2766 0 
L 2766 531 
Q 2569 213 2275 61 
Q 1981 -91 1556 -91 
Q 1019 -91 701 211 
Q 384 513 384 1019 
Q 384 1609 779 1909 
Q 1175 2209 1959 2209 
L 2766 2209 
L 2766 2266 
Q 2766 2663 2505 2880 
Q 2244 3097 1772 3097 
Q 1472 3097 1187 3025 
Q 903 2953 641 2809 
L 641 3341 
Q 956 3463 1253 3523 
Q 1550 3584 1831 3584 
Q 2591 3584 2966 3190 
Q 3341 2797 3341 1997 
z
" transform="scale(0.015625)"/>
        <path id="DejaVuSans-7a" d="M 353 3500 
L 3084 3500 
L 3084 2975 
L 922 459 
L 3084 459 
L 3084 0 
L 275 0 
L 275 525 
L 2438 3041 
L 353 3041 
L 353 3500 
z
" transform="scale(0.015625)"/>
        <path id="DejaVuSans-6f" d="M 1959 3097 
Q 1497 3097 1228 2736 
Q 959 2375 959 1747 
Q 959 1119 1226 758 
Q 1494 397 1959 397 
Q 2419 397 2687 759 
Q 2956 1122 2956 1747 
Q 2956 2369 2687 2733 
Q 2419 3097 1959 3097 
z
M 1959 3584 
Q 2709 3584 3137 3096 
Q 3566 2609 3566 1747 
Q 3566 888 3137 398 
Q 2709 -91 1959 -91 
Q 1206 -91 779 398 
Q 353 888 353 1747 
Q 353 2609 779 3096 
Q 1206 3584 1959 3584 
z
" transform="scale(0.015625)"/>
        <path id="DejaVuSans-77" d="M 269 3500 
L 844 3500 
L 1563 769 
L 2278 3500 
L 2956 3500 
L 3675 769 
L 4391 3500 
L 4966 3500 
L 4050 0 
L 3372 0 
L 2619 2869 
L 1863 0 
L 1184 0 
L 269 3500 
z
" transform="scale(0.015625)"/>
        <path id="DejaVuSans-79" d="M 2059 -325 
Q 1816 -950 1584 -1140 
Q 1353 -1331 966 -1331 
L 506 -1331 
L 506 -850 
L 844 -850 
Q 1081 -850 1212 -737 
Q 1344 -625 1503 -206 
L 1606 56 
L 191 3500 
L 800 3500 
L 1894 763 
L 2988 3500 
L 3597 3500 
L 2059 -325 
z
" transform="scale(0.015625)"/>
       </defs>
       <use xlink:href="#DejaVuSans-42"/>
       <use xlink:href="#DejaVuSans-61" x="68.603516"/>
       <use xlink:href="#DejaVuSans-7a" x="129.882812"/>
       <use xlink:href="#DejaVuSans-6f" x="182.373047"/>
       <use xlink:href="#DejaVuSans-77" x="243.554688"/>
       <use xlink:href="#DejaVuSans-79" x="325.341797"/>
      </g>
      <!-- ProtBERT -->
      <g transform="translate(134.37325 463.945) rotate(-90) scale(0.16 -0.16)">
       <defs>
        <path id="DejaVuSans-50" d="M 1259 4147 
L 1259 2394 
L 2053 2394 
Q 2494 2394 2734 2622 
Q 2975 2850 2975 3272 
Q 2975 3691 2734 3919 
Q 2494 4147 2053 4147 
L 1259 4147 
z
M 628 4666 
L 2053 4666 
Q 2838 4666 3239 4311 
Q 3641 3956 3641 3272 
Q 3641 2581 3239 2228 
Q 2838 1875 2053 1875 
L 1259 1875 
L 1259 0 
L 628 0 
L 628 4666 
z
" transform="scale(0.015625)"/>
        <path id="DejaVuSans-72" d="M 2631 2963 
Q 2534 3019 2420 3045 
Q 2306 3072 2169 3072 
Q 1681 3072 1420 2755 
Q 1159 2438 1159 1844 
L 1159 0 
L 581 0 
L 581 3500 
L 1159 3500 
L 1159 2956 
Q 1341 3275 1631 3429 
Q 1922 3584 2338 3584 
Q 2397 3584 2469 3576 
Q 2541 3569 2628 3553 
L 2631 2963 
z
" transform="scale(0.015625)"/>
        <path id="DejaVuSans-74" d="M 1172 4494 
L 1172 3500 
L 2356 3500 
L 2356 3053 
L 1172 3053 
L 1172 1153 
Q 1172 725 1289 603 
Q 1406 481 1766 481 
L 2356 481 
L 2356 0 
L 1766 0 
Q 1100 0 847 248 
Q 594 497 594 1153 
L 594 3053 
L 172 3053 
L 172 3500 
L 594 3500 
L 594 4494 
L 1172 4494 
z
" transform="scale(0.015625)"/>
        <path id="DejaVuSans-45" d="M 628 4666 
L 3578 4666 
L 3578 4134 
L 1259 4134 
L 1259 2753 
L 3481 2753 
L 3481 2222 
L 1259 2222 
L 1259 531 
L 3634 531 
L 3634 0 
L 628 0 
L 628 4666 
z
" transform="scale(0.015625)"/>
        <path id="DejaVuSans-52" d="M 2841 2188 
Q 3044 2119 3236 1894 
Q 3428 1669 3622 1275 
L 4263 0 
L 3584 0 
L 2988 1197 
Q 2756 1666 2539 1819 
Q 2322 1972 1947 1972 
L 1259 1972 
L 1259 0 
L 628 0 
L 628 4666 
L 2053 4666 
Q 2853 4666 3247 4331 
Q 3641 3997 3641 3322 
Q 3641 2881 3436 2590 
Q 3231 2300 2841 2188 
z
M 1259 4147 
L 1259 2491 
L 2053 2491 
Q 2509 2491 2742 2702 
Q 2975 2913 2975 3322 
Q 2975 3731 2742 3939 
Q 2509 4147 2053 4147 
L 1259 4147 
z
" transform="scale(0.015625)"/>
        <path id="DejaVuSans-54" d="M -19 4666 
L 3928 4666 
L 3928 4134 
L 2272 4134 
L 2272 0 
L 1638 0 
L 1638 4134 
L -19 4134 
L -19 4666 
z
" transform="scale(0.015625)"/>
       </defs>
       <use xlink:href="#DejaVuSans-50"/>
       <use xlink:href="#DejaVuSans-72" x="58.552734"/>
       <use xlink:href="#DejaVuSans-6f" x="97.416016"/>
       <use xlink:href="#DejaVuSans-74" x="158.597656"/>
       <use xlink:href="#DejaVuSans-42" x="197.806641"/>
       <use xlink:href="#DejaVuSans-45" x="266.410156"/>
       <use xlink:href="#DejaVuSans-52" x="329.59375"/>
       <use xlink:href="#DejaVuSans-54" x="391.826172"/>
      </g>
     </g>
    </g>
    <g id="xtick_2">
     <g id="line2d_2">
      <g>
       <use xlink:href="#mf8b5e85282" x="183" y="384.48" style="stroke: #000000; stroke-width: 0.8"/>
      </g>
     </g>
     <g id="text_2">
      <!-- Bazowy -->
      <g transform="translate(178.45675 478.60625) rotate(-90) scale(0.16 -0.16)">
       <use xlink:href="#DejaVuSans-42"/>
       <use xlink:href="#DejaVuSans-61" x="68.603516"/>
       <use xlink:href="#DejaVuSans-7a" x="129.882812"/>
       <use xlink:href="#DejaVuSans-6f" x="182.373047"/>
       <use xlink:href="#DejaVuSans-77" x="243.554688"/>
       <use xlink:href="#DejaVuSans-79" x="325.341797"/>
      </g>
      <!-- DistilProtBERT -->
      <g transform="translate(196.37325 504.2075) rotate(-90) scale(0.16 -0.16)">
       <defs>
        <path id="DejaVuSans-44" d="M 1259 4147 
L 1259 519 
L 2022 519 
Q 2988 519 3436 956 
Q 3884 1394 3884 2338 
Q 3884 3275 3436 3711 
Q 2988 4147 2022 4147 
L 1259 4147 
z
M 628 4666 
L 1925 4666 
Q 3281 4666 3915 4102 
Q 4550 3538 4550 2338 
Q 4550 1131 3912 565 
Q 3275 0 1925 0 
L 628 0 
L 628 4666 
z
" transform="scale(0.015625)"/>
        <path id="DejaVuSans-69" d="M 603 3500 
L 1178 3500 
L 1178 0 
L 603 0 
L 603 3500 
z
M 603 4863 
L 1178 4863 
L 1178 4134 
L 603 4134 
L 603 4863 
z
" transform="scale(0.015625)"/>
        <path id="DejaVuSans-73" d="M 2834 3397 
L 2834 2853 
Q 2591 2978 2328 3040 
Q 2066 3103 1784 3103 
Q 1356 3103 1142 2972 
Q 928 2841 928 2578 
Q 928 2378 1081 2264 
Q 1234 2150 1697 2047 
L 1894 2003 
Q 2506 1872 2764 1633 
Q 3022 1394 3022 966 
Q 3022 478 2636 193 
Q 2250 -91 1575 -91 
Q 1294 -91 989 -36 
Q 684 19 347 128 
L 347 722 
Q 666 556 975 473 
Q 1284 391 1588 391 
Q 1994 391 2212 530 
Q 2431 669 2431 922 
Q 2431 1156 2273 1281 
Q 2116 1406 1581 1522 
L 1381 1569 
Q 847 1681 609 1914 
Q 372 2147 372 2553 
Q 372 3047 722 3315 
Q 1072 3584 1716 3584 
Q 2034 3584 2315 3537 
Q 2597 3491 2834 3397 
z
" transform="scale(0.015625)"/>
        <path id="DejaVuSans-6c" d="M 603 4863 
L 1178 4863 
L 1178 0 
L 603 0 
L 603 4863 
z
" transform="scale(0.015625)"/>
       </defs>
       <use xlink:href="#DejaVuSans-44"/>
       <use xlink:href="#DejaVuSans-69" x="77.001953"/>
       <use xlink:href="#DejaVuSans-73" x="104.785156"/>
       <use xlink:href="#DejaVuSans-74" x="156.884766"/>
       <use xlink:href="#DejaVuSans-69" x="196.09375"/>
       <use xlink:href="#DejaVuSans-6c" x="223.876953"/>
       <use xlink:href="#DejaVuSans-50" x="251.660156"/>
       <use xlink:href="#DejaVuSans-72" x="310.212891"/>
       <use xlink:href="#DejaVuSans-6f" x="349.076172"/>
       <use xlink:href="#DejaVuSans-74" x="410.257812"/>
       <use xlink:href="#DejaVuSans-42" x="449.466797"/>
       <use xlink:href="#DejaVuSans-45" x="518.070312"/>
       <use xlink:href="#DejaVuSans-52" x="581.253906"/>
       <use xlink:href="#DejaVuSans-54" x="643.486328"/>
      </g>
     </g>
    </g>
    <g id="xtick_3">
     <g id="line2d_3">
      <g>
       <use xlink:href="#mf8b5e85282" x="245" y="384.48" style="stroke: #000000; stroke-width: 0.8"/>
      </g>
     </g>
     <g id="text_3">
      <!-- Dotrenowany -->
      <g transform="translate(240.45675 498.355) rotate(-90) scale(0.16 -0.16)">
       <defs>
        <path id="DejaVuSans-65" d="M 3597 1894 
L 3597 1613 
L 953 1613 
Q 991 1019 1311 708 
Q 1631 397 2203 397 
Q 2534 397 2845 478 
Q 3156 559 3463 722 
L 3463 178 
Q 3153 47 2828 -22 
Q 2503 -91 2169 -91 
Q 1331 -91 842 396 
Q 353 884 353 1716 
Q 353 2575 817 3079 
Q 1281 3584 2069 3584 
Q 2775 3584 3186 3129 
Q 3597 2675 3597 1894 
z
M 3022 2063 
Q 3016 2534 2758 2815 
Q 2500 3097 2075 3097 
Q 1594 3097 1305 2825 
Q 1016 2553 972 2059 
L 3022 2063 
z
" transform="scale(0.015625)"/>
        <path id="DejaVuSans-6e" d="M 3513 2113 
L 3513 0 
L 2938 0 
L 2938 2094 
Q 2938 2591 2744 2837 
Q 2550 3084 2163 3084 
Q 1697 3084 1428 2787 
Q 1159 2491 1159 1978 
L 1159 0 
L 581 0 
L 581 3500 
L 1159 3500 
L 1159 2956 
Q 1366 3272 1645 3428 
Q 1925 3584 2291 3584 
Q 2894 3584 3203 3211 
Q 3513 2838 3513 2113 
z
" transform="scale(0.015625)"/>
       </defs>
       <use xlink:href="#DejaVuSans-44"/>
       <use xlink:href="#DejaVuSans-6f" x="77.001953"/>
       <use xlink:href="#DejaVuSans-74" x="138.183594"/>
       <use xlink:href="#DejaVuSans-72" x="177.392578"/>
       <use xlink:href="#DejaVuSans-65" x="216.255859"/>
       <use xlink:href="#DejaVuSans-6e" x="277.779297"/>
       <use xlink:href="#DejaVuSans-6f" x="341.158203"/>
       <use xlink:href="#DejaVuSans-77" x="402.339844"/>
       <use xlink:href="#DejaVuSans-61" x="484.126953"/>
       <use xlink:href="#DejaVuSans-6e" x="545.40625"/>
       <use xlink:href="#DejaVuSans-79" x="608.785156"/>
      </g>
      <!-- ProtBERT -->
      <g transform="translate(258.37325 481.15) rotate(-90) scale(0.16 -0.16)">
       <use xlink:href="#DejaVuSans-50"/>
       <use xlink:href="#DejaVuSans-72" x="58.552734"/>
       <use xlink:href="#DejaVuSans-6f" x="97.416016"/>
       <use xlink:href="#DejaVuSans-74" x="158.597656"/>
       <use xlink:href="#DejaVuSans-42" x="197.806641"/>
       <use xlink:href="#DejaVuSans-45" x="266.410156"/>
       <use xlink:href="#DejaVuSans-52" x="329.59375"/>
       <use xlink:href="#DejaVuSans-54" x="391.826172"/>
      </g>
     </g>
    </g>
    <g id="xtick_4">
     <g id="line2d_4">
      <g>
       <use xlink:href="#mf8b5e85282" x="307" y="384.48" style="stroke: #000000; stroke-width: 0.8"/>
      </g>
     </g>
     <g id="text_4">
      <!-- Dotrenowany -->
      <g transform="translate(302.45675 501.28125) rotate(-90) scale(0.16 -0.16)">
       <use xlink:href="#DejaVuSans-44"/>
       <use xlink:href="#DejaVuSans-6f" x="77.001953"/>
       <use xlink:href="#DejaVuSans-74" x="138.183594"/>
       <use xlink:href="#DejaVuSans-72" x="177.392578"/>
       <use xlink:href="#DejaVuSans-65" x="216.255859"/>
       <use xlink:href="#DejaVuSans-6e" x="277.779297"/>
       <use xlink:href="#DejaVuSans-6f" x="341.158203"/>
       <use xlink:href="#DejaVuSans-77" x="402.339844"/>
       <use xlink:href="#DejaVuSans-61" x="484.126953"/>
       <use xlink:href="#DejaVuSans-6e" x="545.40625"/>
       <use xlink:href="#DejaVuSans-79" x="608.785156"/>
      </g>
      <!-- DistilProtBERT -->
      <g transform="translate(320.37325 504.2075) rotate(-90) scale(0.16 -0.16)">
       <use xlink:href="#DejaVuSans-44"/>
       <use xlink:href="#DejaVuSans-69" x="77.001953"/>
       <use xlink:href="#DejaVuSans-73" x="104.785156"/>
       <use xlink:href="#DejaVuSans-74" x="156.884766"/>
       <use xlink:href="#DejaVuSans-69" x="196.09375"/>
       <use xlink:href="#DejaVuSans-6c" x="223.876953"/>
       <use xlink:href="#DejaVuSans-50" x="251.660156"/>
       <use xlink:href="#DejaVuSans-72" x="310.212891"/>
       <use xlink:href="#DejaVuSans-6f" x="349.076172"/>
       <use xlink:href="#DejaVuSans-74" x="410.257812"/>
       <use xlink:href="#DejaVuSans-42" x="449.466797"/>
       <use xlink:href="#DejaVuSans-45" x="518.070312"/>
       <use xlink:href="#DejaVuSans-52" x="581.253906"/>
       <use xlink:href="#DejaVuSans-54" x="643.486328"/>
      </g>
     </g>
    </g>
    <g id="xtick_5">
     <g id="line2d_5">
      <g>
       <use xlink:href="#mf8b5e85282" x="369" y="384.48" style="stroke: #000000; stroke-width: 0.8"/>
      </g>
     </g>
     <g id="text_5">
      <!-- Model1 -->
      <g transform="translate(364.45675 479.8375) rotate(-90) scale(0.16 -0.16)">
       <defs>
        <path id="DejaVuSans-4d" d="M 628 4666 
L 1569 4666 
L 2759 1491 
L 3956 4666 
L 4897 4666 
L 4897 0 
L 4281 0 
L 4281 4097 
L 3078 897 
L 2444 897 
L 1241 4097 
L 1241 0 
L 628 0 
L 628 4666 
z
" transform="scale(0.015625)"/>
        <path id="DejaVuSans-64" d="M 2906 2969 
L 2906 4863 
L 3481 4863 
L 3481 0 
L 2906 0 
L 2906 525 
Q 2725 213 2448 61 
Q 2172 -91 1784 -91 
Q 1150 -91 751 415 
Q 353 922 353 1747 
Q 353 2572 751 3078 
Q 1150 3584 1784 3584 
Q 2172 3584 2448 3432 
Q 2725 3281 2906 2969 
z
M 947 1747 
Q 947 1113 1208 752 
Q 1469 391 1925 391 
Q 2381 391 2643 752 
Q 2906 1113 2906 1747 
Q 2906 2381 2643 2742 
Q 2381 3103 1925 3103 
Q 1469 3103 1208 2742 
Q 947 2381 947 1747 
z
" transform="scale(0.015625)"/>
        <path id="DejaVuSans-31" d="M 794 531 
L 1825 531 
L 1825 4091 
L 703 3866 
L 703 4441 
L 1819 4666 
L 2450 4666 
L 2450 531 
L 3481 531 
L 3481 0 
L 794 0 
L 794 531 
z
" transform="scale(0.015625)"/>
       </defs>
       <use xlink:href="#DejaVuSans-4d"/>
       <use xlink:href="#DejaVuSans-6f" x="86.279297"/>
       <use xlink:href="#DejaVuSans-64" x="147.460938"/>
       <use xlink:href="#DejaVuSans-65" x="210.9375"/>
       <use xlink:href="#DejaVuSans-6c" x="272.460938"/>
       <use xlink:href="#DejaVuSans-31" x="300.244141"/>
      </g>
      <!-- (CrossEntropy) -->
      <g transform="translate(382.37325 509.9725) rotate(-90) scale(0.16 -0.16)">
       <defs>
        <path id="DejaVuSans-28" d="M 1984 4856 
Q 1566 4138 1362 3434 
Q 1159 2731 1159 2009 
Q 1159 1288 1364 580 
Q 1569 -128 1984 -844 
L 1484 -844 
Q 1016 -109 783 600 
Q 550 1309 550 2009 
Q 550 2706 781 3412 
Q 1013 4119 1484 4856 
L 1984 4856 
z
" transform="scale(0.015625)"/>
        <path id="DejaVuSans-43" d="M 4122 4306 
L 4122 3641 
Q 3803 3938 3442 4084 
Q 3081 4231 2675 4231 
Q 1875 4231 1450 3742 
Q 1025 3253 1025 2328 
Q 1025 1406 1450 917 
Q 1875 428 2675 428 
Q 3081 428 3442 575 
Q 3803 722 4122 1019 
L 4122 359 
Q 3791 134 3420 21 
Q 3050 -91 2638 -91 
Q 1578 -91 968 557 
Q 359 1206 359 2328 
Q 359 3453 968 4101 
Q 1578 4750 2638 4750 
Q 3056 4750 3426 4639 
Q 3797 4528 4122 4306 
z
" transform="scale(0.015625)"/>
        <path id="DejaVuSans-70" d="M 1159 525 
L 1159 -1331 
L 581 -1331 
L 581 3500 
L 1159 3500 
L 1159 2969 
Q 1341 3281 1617 3432 
Q 1894 3584 2278 3584 
Q 2916 3584 3314 3078 
Q 3713 2572 3713 1747 
Q 3713 922 3314 415 
Q 2916 -91 2278 -91 
Q 1894 -91 1617 61 
Q 1341 213 1159 525 
z
M 3116 1747 
Q 3116 2381 2855 2742 
Q 2594 3103 2138 3103 
Q 1681 3103 1420 2742 
Q 1159 2381 1159 1747 
Q 1159 1113 1420 752 
Q 1681 391 2138 391 
Q 2594 391 2855 752 
Q 3116 1113 3116 1747 
z
" transform="scale(0.015625)"/>
        <path id="DejaVuSans-29" d="M 513 4856 
L 1013 4856 
Q 1481 4119 1714 3412 
Q 1947 2706 1947 2009 
Q 1947 1309 1714 600 
Q 1481 -109 1013 -844 
L 513 -844 
Q 928 -128 1133 580 
Q 1338 1288 1338 2009 
Q 1338 2731 1133 3434 
Q 928 4138 513 4856 
z
" transform="scale(0.015625)"/>
       </defs>
       <use xlink:href="#DejaVuSans-28"/>
       <use xlink:href="#DejaVuSans-43" x="39.013672"/>
       <use xlink:href="#DejaVuSans-72" x="108.837891"/>
       <use xlink:href="#DejaVuSans-6f" x="147.701172"/>
       <use xlink:href="#DejaVuSans-73" x="208.882812"/>
       <use xlink:href="#DejaVuSans-73" x="260.982422"/>
       <use xlink:href="#DejaVuSans-45" x="313.082031"/>
       <use xlink:href="#DejaVuSans-6e" x="376.265625"/>
       <use xlink:href="#DejaVuSans-74" x="439.644531"/>
       <use xlink:href="#DejaVuSans-72" x="478.853516"/>
       <use xlink:href="#DejaVuSans-6f" x="517.716797"/>
       <use xlink:href="#DejaVuSans-70" x="578.898438"/>
       <use xlink:href="#DejaVuSans-79" x="642.375"/>
       <use xlink:href="#DejaVuSans-29" x="701.554688"/>
      </g>
     </g>
    </g>
    <g id="xtick_6">
     <g id="line2d_6">
      <g>
       <use xlink:href="#mf8b5e85282" x="431" y="384.48" style="stroke: #000000; stroke-width: 0.8"/>
      </g>
     </g>
     <g id="text_6">
      <!-- Model2 -->
      <g transform="translate(426.45675 479.8375) rotate(-90) scale(0.16 -0.16)">
       <defs>
        <path id="DejaVuSans-32" d="M 1228 531 
L 3431 531 
L 3431 0 
L 469 0 
L 469 531 
Q 828 903 1448 1529 
Q 2069 2156 2228 2338 
Q 2531 2678 2651 2914 
Q 2772 3150 2772 3378 
Q 2772 3750 2511 3984 
Q 2250 4219 1831 4219 
Q 1534 4219 1204 4116 
Q 875 4013 500 3803 
L 500 4441 
Q 881 4594 1212 4672 
Q 1544 4750 1819 4750 
Q 2544 4750 2975 4387 
Q 3406 4025 3406 3419 
Q 3406 3131 3298 2873 
Q 3191 2616 2906 2266 
Q 2828 2175 2409 1742 
Q 1991 1309 1228 531 
z
" transform="scale(0.015625)"/>
       </defs>
       <use xlink:href="#DejaVuSans-4d"/>
       <use xlink:href="#DejaVuSans-6f" x="86.279297"/>
       <use xlink:href="#DejaVuSans-64" x="147.460938"/>
       <use xlink:href="#DejaVuSans-65" x="210.9375"/>
       <use xlink:href="#DejaVuSans-6c" x="272.460938"/>
       <use xlink:href="#DejaVuSans-32" x="300.244141"/>
      </g>
      <!-- (CrossEntropy) -->
      <g transform="translate(444.37325 509.9725) rotate(-90) scale(0.16 -0.16)">
       <use xlink:href="#DejaVuSans-28"/>
       <use xlink:href="#DejaVuSans-43" x="39.013672"/>
       <use xlink:href="#DejaVuSans-72" x="108.837891"/>
       <use xlink:href="#DejaVuSans-6f" x="147.701172"/>
       <use xlink:href="#DejaVuSans-73" x="208.882812"/>
       <use xlink:href="#DejaVuSans-73" x="260.982422"/>
       <use xlink:href="#DejaVuSans-45" x="313.082031"/>
       <use xlink:href="#DejaVuSans-6e" x="376.265625"/>
       <use xlink:href="#DejaVuSans-74" x="439.644531"/>
       <use xlink:href="#DejaVuSans-72" x="478.853516"/>
       <use xlink:href="#DejaVuSans-6f" x="517.716797"/>
       <use xlink:href="#DejaVuSans-70" x="578.898438"/>
       <use xlink:href="#DejaVuSans-79" x="642.375"/>
       <use xlink:href="#DejaVuSans-29" x="701.554688"/>
      </g>
     </g>
    </g>
    <g id="xtick_7">
     <g id="line2d_7">
      <g>
       <use xlink:href="#mf8b5e85282" x="493" y="384.48" style="stroke: #000000; stroke-width: 0.8"/>
      </g>
     </g>
     <g id="text_7">
      <!-- Model2 -->
      <g transform="translate(488.45675 485.0275) rotate(-90) scale(0.16 -0.16)">
       <use xlink:href="#DejaVuSans-4d"/>
       <use xlink:href="#DejaVuSans-6f" x="86.279297"/>
       <use xlink:href="#DejaVuSans-64" x="147.460938"/>
       <use xlink:href="#DejaVuSans-65" x="210.9375"/>
       <use xlink:href="#DejaVuSans-6c" x="272.460938"/>
       <use xlink:href="#DejaVuSans-32" x="300.244141"/>
      </g>
      <!-- (CombinedLoss) -->
      <g transform="translate(506.37325 520.3525) rotate(-90) scale(0.16 -0.16)">
       <defs>
        <path id="DejaVuSans-6d" d="M 3328 2828 
Q 3544 3216 3844 3400 
Q 4144 3584 4550 3584 
Q 5097 3584 5394 3201 
Q 5691 2819 5691 2113 
L 5691 0 
L 5113 0 
L 5113 2094 
Q 5113 2597 4934 2840 
Q 4756 3084 4391 3084 
Q 3944 3084 3684 2787 
Q 3425 2491 3425 1978 
L 3425 0 
L 2847 0 
L 2847 2094 
Q 2847 2600 2669 2842 
Q 2491 3084 2119 3084 
Q 1678 3084 1418 2786 
Q 1159 2488 1159 1978 
L 1159 0 
L 581 0 
L 581 3500 
L 1159 3500 
L 1159 2956 
Q 1356 3278 1631 3431 
Q 1906 3584 2284 3584 
Q 2666 3584 2933 3390 
Q 3200 3197 3328 2828 
z
" transform="scale(0.015625)"/>
        <path id="DejaVuSans-62" d="M 3116 1747 
Q 3116 2381 2855 2742 
Q 2594 3103 2138 3103 
Q 1681 3103 1420 2742 
Q 1159 2381 1159 1747 
Q 1159 1113 1420 752 
Q 1681 391 2138 391 
Q 2594 391 2855 752 
Q 3116 1113 3116 1747 
z
M 1159 2969 
Q 1341 3281 1617 3432 
Q 1894 3584 2278 3584 
Q 2916 3584 3314 3078 
Q 3713 2572 3713 1747 
Q 3713 922 3314 415 
Q 2916 -91 2278 -91 
Q 1894 -91 1617 61 
Q 1341 213 1159 525 
L 1159 0 
L 581 0 
L 581 4863 
L 1159 4863 
L 1159 2969 
z
" transform="scale(0.015625)"/>
        <path id="DejaVuSans-4c" d="M 628 4666 
L 1259 4666 
L 1259 531 
L 3531 531 
L 3531 0 
L 628 0 
L 628 4666 
z
" transform="scale(0.015625)"/>
       </defs>
       <use xlink:href="#DejaVuSans-28"/>
       <use xlink:href="#DejaVuSans-43" x="39.013672"/>
       <use xlink:href="#DejaVuSans-6f" x="108.837891"/>
       <use xlink:href="#DejaVuSans-6d" x="170.019531"/>
       <use xlink:href="#DejaVuSans-62" x="267.431641"/>
       <use xlink:href="#DejaVuSans-69" x="330.908203"/>
       <use xlink:href="#DejaVuSans-6e" x="358.691406"/>
       <use xlink:href="#DejaVuSans-65" x="422.070312"/>
       <use xlink:href="#DejaVuSans-64" x="483.59375"/>
       <use xlink:href="#DejaVuSans-4c" x="547.070312"/>
       <use xlink:href="#DejaVuSans-6f" x="601.033203"/>
       <use xlink:href="#DejaVuSans-73" x="662.214844"/>
       <use xlink:href="#DejaVuSans-73" x="714.314453"/>
       <use xlink:href="#DejaVuSans-29" x="766.414062"/>
      </g>
     </g>
    </g>
    <g id="xtick_8">
     <g id="line2d_8">
      <g>
       <use xlink:href="#mf8b5e85282" x="555" y="384.48" style="stroke: #000000; stroke-width: 0.8"/>
      </g>
     </g>
     <g id="text_8">
      <!-- Rozkład -->
      <g transform="translate(550.45675 469.0825) rotate(-90) scale(0.16 -0.16)">
       <defs>
        <path id="DejaVuSans-6b" d="M 581 4863 
L 1159 4863 
L 1159 1991 
L 2875 3500 
L 3609 3500 
L 1753 1863 
L 3688 0 
L 2938 0 
L 1159 1709 
L 1159 0 
L 581 0 
L 581 4863 
z
" transform="scale(0.015625)"/>
        <path id="DejaVuSans-142" d="M 622 4863 
L 1197 4863 
L 1197 2981 
L 1588 3263 
L 1825 2931 
L 1197 2491 
L 1197 0 
L 622 0 
L 622 2081 
L 238 1806 
L 6 2138 
L 622 2578 
L 622 4863 
z
" transform="scale(0.015625)"/>
       </defs>
       <use xlink:href="#DejaVuSans-52"/>
       <use xlink:href="#DejaVuSans-6f" x="64.982422"/>
       <use xlink:href="#DejaVuSans-7a" x="126.164062"/>
       <use xlink:href="#DejaVuSans-6b" x="178.654297"/>
       <use xlink:href="#DejaVuSans-142" x="236.564453"/>
       <use xlink:href="#DejaVuSans-61" x="264.982422"/>
       <use xlink:href="#DejaVuSans-64" x="326.261719"/>
      </g>
      <!-- jednostajny -->
      <g transform="translate(568.37325 484.325) rotate(-90) scale(0.16 -0.16)">
       <defs>
        <path id="DejaVuSans-6a" d="M 603 3500 
L 1178 3500 
L 1178 -63 
Q 1178 -731 923 -1031 
Q 669 -1331 103 -1331 
L -116 -1331 
L -116 -844 
L 38 -844 
Q 366 -844 484 -692 
Q 603 -541 603 -63 
L 603 3500 
z
M 603 4863 
L 1178 4863 
L 1178 4134 
L 603 4134 
L 603 4863 
z
" transform="scale(0.015625)"/>
       </defs>
       <use xlink:href="#DejaVuSans-6a"/>
       <use xlink:href="#DejaVuSans-65" x="27.783203"/>
       <use xlink:href="#DejaVuSans-64" x="89.306641"/>
       <use xlink:href="#DejaVuSans-6e" x="152.783203"/>
       <use xlink:href="#DejaVuSans-6f" x="216.162109"/>
       <use xlink:href="#DejaVuSans-73" x="277.34375"/>
       <use xlink:href="#DejaVuSans-74" x="329.443359"/>
       <use xlink:href="#DejaVuSans-61" x="368.652344"/>
       <use xlink:href="#DejaVuSans-6a" x="429.931641"/>
       <use xlink:href="#DejaVuSans-6e" x="457.714844"/>
       <use xlink:href="#DejaVuSans-79" x="521.09375"/>
      </g>
     </g>
    </g>
    <g id="xtick_9">
     <g id="line2d_9">
      <g>
       <use xlink:href="#mf8b5e85282" x="617" y="384.48" style="stroke: #000000; stroke-width: 0.8"/>
      </g>
     </g>
     <g id="text_9">
      <!-- Rozkład -->
      <g transform="translate(612.45675 469.1025) rotate(-90) scale(0.16 -0.16)">
       <use xlink:href="#DejaVuSans-52"/>
       <use xlink:href="#DejaVuSans-6f" x="64.982422"/>
       <use xlink:href="#DejaVuSans-7a" x="126.164062"/>
       <use xlink:href="#DejaVuSans-6b" x="178.654297"/>
       <use xlink:href="#DejaVuSans-142" x="236.564453"/>
       <use xlink:href="#DejaVuSans-61" x="264.982422"/>
       <use xlink:href="#DejaVuSans-64" x="326.261719"/>
      </g>
      <!-- empiryczny -->
      <g transform="translate(630.37325 484.365) rotate(-90) scale(0.16 -0.16)">
       <defs>
        <path id="DejaVuSans-63" d="M 3122 3366 
L 3122 2828 
Q 2878 2963 2633 3030 
Q 2388 3097 2138 3097 
Q 1578 3097 1268 2742 
Q 959 2388 959 1747 
Q 959 1106 1268 751 
Q 1578 397 2138 397 
Q 2388 397 2633 464 
Q 2878 531 3122 666 
L 3122 134 
Q 2881 22 2623 -34 
Q 2366 -91 2075 -91 
Q 1284 -91 818 406 
Q 353 903 353 1747 
Q 353 2603 823 3093 
Q 1294 3584 2113 3584 
Q 2378 3584 2631 3529 
Q 2884 3475 3122 3366 
z
" transform="scale(0.015625)"/>
       </defs>
       <use xlink:href="#DejaVuSans-65"/>
       <use xlink:href="#DejaVuSans-6d" x="61.523438"/>
       <use xlink:href="#DejaVuSans-70" x="158.935547"/>
       <use xlink:href="#DejaVuSans-69" x="222.412109"/>
       <use xlink:href="#DejaVuSans-72" x="250.195312"/>
       <use xlink:href="#DejaVuSans-79" x="291.308594"/>
       <use xlink:href="#DejaVuSans-63" x="350.488281"/>
       <use xlink:href="#DejaVuSans-7a" x="405.46875"/>
       <use xlink:href="#DejaVuSans-6e" x="457.958984"/>
       <use xlink:href="#DejaVuSans-79" x="521.337891"/>
      </g>
     </g>
    </g>
    <g id="text_10">
     <!-- Model -->
     <g transform="translate(344.97875 536.51) scale(0.16 -0.16)">
      <use xlink:href="#DejaVuSans-4d"/>
      <use xlink:href="#DejaVuSans-6f" x="86.279297"/>
      <use xlink:href="#DejaVuSans-64" x="147.460938"/>
      <use xlink:href="#DejaVuSans-65" x="210.9375"/>
      <use xlink:href="#DejaVuSans-6c" x="272.460938"/>
     </g>
    </g>
   </g>
   <g id="matplotlib.axis_2">
    <g id="ytick_1">
     <g id="line2d_10">
      <defs>
       <path id="md342f45e10" d="M 0 0 
L -3.5 0 
" style="stroke: #000000; stroke-width: 0.8"/>
      </defs>
      <g>
       <use xlink:href="#md342f45e10" x="90" y="369.36" style="stroke: #000000; stroke-width: 0.8"/>
      </g>
     </g>
     <g id="text_11">
      <!-- 0.0 -->
      <g transform="translate(57.555 375.43875) scale(0.16 -0.16)">
       <defs>
        <path id="DejaVuSans-30" d="M 2034 4250 
Q 1547 4250 1301 3770 
Q 1056 3291 1056 2328 
Q 1056 1369 1301 889 
Q 1547 409 2034 409 
Q 2525 409 2770 889 
Q 3016 1369 3016 2328 
Q 3016 3291 2770 3770 
Q 2525 4250 2034 4250 
z
M 2034 4750 
Q 2819 4750 3233 4129 
Q 3647 3509 3647 2328 
Q 3647 1150 3233 529 
Q 2819 -91 2034 -91 
Q 1250 -91 836 529 
Q 422 1150 422 2328 
Q 422 3509 836 4129 
Q 1250 4750 2034 4750 
z
" transform="scale(0.015625)"/>
        <path id="DejaVuSans-2e" d="M 684 794 
L 1344 794 
L 1344 0 
L 684 0 
L 684 794 
z
" transform="scale(0.015625)"/>
       </defs>
       <use xlink:href="#DejaVuSans-30"/>
       <use xlink:href="#DejaVuSans-2e" x="63.623047"/>
       <use xlink:href="#DejaVuSans-30" x="95.410156"/>
      </g>
     </g>
    </g>
    <g id="ytick_2">
     <g id="line2d_11">
      <g>
       <use xlink:href="#md342f45e10" x="90" y="324" style="stroke: #000000; stroke-width: 0.8"/>
      </g>
     </g>
     <g id="text_12">
      <!-- 0.1 -->
      <g transform="translate(57.555 330.07875) scale(0.16 -0.16)">
       <use xlink:href="#DejaVuSans-30"/>
       <use xlink:href="#DejaVuSans-2e" x="63.623047"/>
       <use xlink:href="#DejaVuSans-31" x="95.410156"/>
      </g>
     </g>
    </g>
    <g id="ytick_3">
     <g id="line2d_12">
      <g>
       <use xlink:href="#md342f45e10" x="90" y="278.64" style="stroke: #000000; stroke-width: 0.8"/>
      </g>
     </g>
     <g id="text_13">
      <!-- 0.2 -->
      <g transform="translate(57.555 284.71875) scale(0.16 -0.16)">
       <use xlink:href="#DejaVuSans-30"/>
       <use xlink:href="#DejaVuSans-2e" x="63.623047"/>
       <use xlink:href="#DejaVuSans-32" x="95.410156"/>
      </g>
     </g>
    </g>
    <g id="ytick_4">
     <g id="line2d_13">
      <g>
       <use xlink:href="#md342f45e10" x="90" y="233.28" style="stroke: #000000; stroke-width: 0.8"/>
      </g>
     </g>
     <g id="text_14">
      <!-- 0.3 -->
      <g transform="translate(57.555 239.35875) scale(0.16 -0.16)">
       <defs>
        <path id="DejaVuSans-33" d="M 2597 2516 
Q 3050 2419 3304 2112 
Q 3559 1806 3559 1356 
Q 3559 666 3084 287 
Q 2609 -91 1734 -91 
Q 1441 -91 1130 -33 
Q 819 25 488 141 
L 488 750 
Q 750 597 1062 519 
Q 1375 441 1716 441 
Q 2309 441 2620 675 
Q 2931 909 2931 1356 
Q 2931 1769 2642 2001 
Q 2353 2234 1838 2234 
L 1294 2234 
L 1294 2753 
L 1863 2753 
Q 2328 2753 2575 2939 
Q 2822 3125 2822 3475 
Q 2822 3834 2567 4026 
Q 2313 4219 1838 4219 
Q 1578 4219 1281 4162 
Q 984 4106 628 3988 
L 628 4550 
Q 988 4650 1302 4700 
Q 1616 4750 1894 4750 
Q 2613 4750 3031 4423 
Q 3450 4097 3450 3541 
Q 3450 3153 3228 2886 
Q 3006 2619 2597 2516 
z
" transform="scale(0.015625)"/>
       </defs>
       <use xlink:href="#DejaVuSans-30"/>
       <use xlink:href="#DejaVuSans-2e" x="63.623047"/>
       <use xlink:href="#DejaVuSans-33" x="95.410156"/>
      </g>
     </g>
    </g>
    <g id="ytick_5">
     <g id="line2d_14">
      <g>
       <use xlink:href="#md342f45e10" x="90" y="187.92" style="stroke: #000000; stroke-width: 0.8"/>
      </g>
     </g>
     <g id="text_15">
      <!-- 0.4 -->
      <g transform="translate(57.555 193.99875) scale(0.16 -0.16)">
       <defs>
        <path id="DejaVuSans-34" d="M 2419 4116 
L 825 1625 
L 2419 1625 
L 2419 4116 
z
M 2253 4666 
L 3047 4666 
L 3047 1625 
L 3713 1625 
L 3713 1100 
L 3047 1100 
L 3047 0 
L 2419 0 
L 2419 1100 
L 313 1100 
L 313 1709 
L 2253 4666 
z
" transform="scale(0.015625)"/>
       </defs>
       <use xlink:href="#DejaVuSans-30"/>
       <use xlink:href="#DejaVuSans-2e" x="63.623047"/>
       <use xlink:href="#DejaVuSans-34" x="95.410156"/>
      </g>
     </g>
    </g>
    <g id="ytick_6">
     <g id="line2d_15">
      <g>
       <use xlink:href="#md342f45e10" x="90" y="142.56" style="stroke: #000000; stroke-width: 0.8"/>
      </g>
     </g>
     <g id="text_16">
      <!-- 0.5 -->
      <g transform="translate(57.555 148.63875) scale(0.16 -0.16)">
       <defs>
        <path id="DejaVuSans-35" d="M 691 4666 
L 3169 4666 
L 3169 4134 
L 1269 4134 
L 1269 2991 
Q 1406 3038 1543 3061 
Q 1681 3084 1819 3084 
Q 2600 3084 3056 2656 
Q 3513 2228 3513 1497 
Q 3513 744 3044 326 
Q 2575 -91 1722 -91 
Q 1428 -91 1123 -41 
Q 819 9 494 109 
L 494 744 
Q 775 591 1075 516 
Q 1375 441 1709 441 
Q 2250 441 2565 725 
Q 2881 1009 2881 1497 
Q 2881 1984 2565 2268 
Q 2250 2553 1709 2553 
Q 1456 2553 1204 2497 
Q 953 2441 691 2322 
L 691 4666 
z
" transform="scale(0.015625)"/>
       </defs>
       <use xlink:href="#DejaVuSans-30"/>
       <use xlink:href="#DejaVuSans-2e" x="63.623047"/>
       <use xlink:href="#DejaVuSans-35" x="95.410156"/>
      </g>
     </g>
    </g>
    <g id="ytick_7">
     <g id="line2d_16">
      <g>
       <use xlink:href="#md342f45e10" x="90" y="97.2" style="stroke: #000000; stroke-width: 0.8"/>
      </g>
     </g>
     <g id="text_17">
      <!-- 0.6 -->
      <g transform="translate(57.555 103.27875) scale(0.16 -0.16)">
       <defs>
        <path id="DejaVuSans-36" d="M 2113 2584 
Q 1688 2584 1439 2293 
Q 1191 2003 1191 1497 
Q 1191 994 1439 701 
Q 1688 409 2113 409 
Q 2538 409 2786 701 
Q 3034 994 3034 1497 
Q 3034 2003 2786 2293 
Q 2538 2584 2113 2584 
z
M 3366 4563 
L 3366 3988 
Q 3128 4100 2886 4159 
Q 2644 4219 2406 4219 
Q 1781 4219 1451 3797 
Q 1122 3375 1075 2522 
Q 1259 2794 1537 2939 
Q 1816 3084 2150 3084 
Q 2853 3084 3261 2657 
Q 3669 2231 3669 1497 
Q 3669 778 3244 343 
Q 2819 -91 2113 -91 
Q 1303 -91 875 529 
Q 447 1150 447 2328 
Q 447 3434 972 4092 
Q 1497 4750 2381 4750 
Q 2619 4750 2861 4703 
Q 3103 4656 3366 4563 
z
" transform="scale(0.015625)"/>
       </defs>
       <use xlink:href="#DejaVuSans-30"/>
       <use xlink:href="#DejaVuSans-2e" x="63.623047"/>
       <use xlink:href="#DejaVuSans-36" x="95.410156"/>
      </g>
     </g>
    </g>
    <g id="ytick_8">
     <g id="line2d_17">
      <g>
       <use xlink:href="#md342f45e10" x="90" y="51.84" style="stroke: #000000; stroke-width: 0.8"/>
      </g>
     </g>
     <g id="text_18">
      <!-- 0.7 -->
      <g transform="translate(57.555 57.91875) scale(0.16 -0.16)">
       <defs>
        <path id="DejaVuSans-37" d="M 525 4666 
L 3525 4666 
L 3525 4397 
L 1831 0 
L 1172 0 
L 2766 4134 
L 525 4134 
L 525 4666 
z
" transform="scale(0.015625)"/>
       </defs>
       <use xlink:href="#DejaVuSans-30"/>
       <use xlink:href="#DejaVuSans-2e" x="63.623047"/>
       <use xlink:href="#DejaVuSans-37" x="95.410156"/>
      </g>
     </g>
    </g>
    <g id="text_19">
     <!-- Wartości -->
     <g transform="translate(50.2275 252.57125) rotate(-90) scale(0.16 -0.16)">
      <defs>
       <path id="DejaVuSans-57" d="M 213 4666 
L 850 4666 
L 1831 722 
L 2809 4666 
L 3519 4666 
L 4500 722 
L 5478 4666 
L 6119 4666 
L 4947 0 
L 4153 0 
L 3169 4050 
L 2175 0 
L 1381 0 
L 213 4666 
z
" transform="scale(0.015625)"/>
       <path id="DejaVuSans-15b" d="M 2242 5119 
L 2864 5119 
L 1846 3944 
L 1367 3944 
L 2242 5119 
z
M 2834 3397 
L 2834 2853 
Q 2591 2978 2328 3040 
Q 2066 3103 1784 3103 
Q 1356 3103 1142 2972 
Q 928 2841 928 2578 
Q 928 2378 1081 2264 
Q 1234 2150 1697 2047 
L 1894 2003 
Q 2506 1872 2764 1633 
Q 3022 1394 3022 966 
Q 3022 478 2636 193 
Q 2250 -91 1575 -91 
Q 1294 -91 989 -36 
Q 684 19 347 128 
L 347 722 
Q 666 556 975 473 
Q 1284 391 1588 391 
Q 1994 391 2212 530 
Q 2431 669 2431 922 
Q 2431 1156 2273 1281 
Q 2116 1406 1581 1522 
L 1381 1569 
Q 847 1681 609 1914 
Q 372 2147 372 2553 
Q 372 3047 722 3315 
Q 1072 3584 1716 3584 
Q 2034 3584 2315 3537 
Q 2597 3491 2834 3397 
z
" transform="scale(0.015625)"/>
      </defs>
      <use xlink:href="#DejaVuSans-57"/>
      <use xlink:href="#DejaVuSans-61" x="92.501953"/>
      <use xlink:href="#DejaVuSans-72" x="153.78125"/>
      <use xlink:href="#DejaVuSans-74" x="194.894531"/>
      <use xlink:href="#DejaVuSans-6f" x="234.103516"/>
      <use xlink:href="#DejaVuSans-15b" x="295.285156"/>
      <use xlink:href="#DejaVuSans-63" x="347.384766"/>
      <use xlink:href="#DejaVuSans-69" x="402.365234"/>
     </g>
    </g>
   </g>
   <g id="patch_3">
    <path d="M 96.2 339.7815 
L 145.8 339.7815 
L 145.8 328.845761 
L 96.2 328.845761 
L 96.2 339.7815 
z
" clip-path="url(#p6c6cb29584)" style="fill: #3274a1; stroke: #3f3f3f; stroke-linejoin: miter"/>
   </g>
   <g id="line2d_18">
    <path d="M 121 339.7815 
L 121 344.314601 
" clip-path="url(#p6c6cb29584)" style="fill: none; stroke: #3f3f3f"/>
   </g>
   <g id="line2d_19">
    <path d="M 121 328.845761 
L 121 321.77958 
" clip-path="url(#p6c6cb29584)" style="fill: none; stroke: #3f3f3f"/>
   </g>
   <g id="line2d_20">
    <path d="M 108.6 344.314601 
L 133.4 344.314601 
" clip-path="url(#p6c6cb29584)" style="fill: none; stroke: #3f3f3f; stroke-linecap: square"/>
   </g>
   <g id="line2d_21">
    <path d="M 108.6 321.77958 
L 133.4 321.77958 
" clip-path="url(#p6c6cb29584)" style="fill: none; stroke: #3f3f3f; stroke-linecap: square"/>
   </g>
   <g id="line2d_22"/>
   <g id="patch_4">
    <path d="M 158.2 369.36 
L 207.8 369.36 
L 207.8 366.120788 
L 158.2 366.120788 
L 158.2 369.36 
z
" clip-path="url(#p6c6cb29584)" style="fill: #3274a1; stroke: #3f3f3f; stroke-linejoin: miter"/>
   </g>
   <g id="line2d_23">
    <path d="M 183 369.36 
L 183 369.36 
" clip-path="url(#p6c6cb29584)" style="fill: none; stroke: #3f3f3f"/>
   </g>
   <g id="line2d_24">
    <path d="M 183 366.120788 
L 183 363.469091 
" clip-path="url(#p6c6cb29584)" style="fill: none; stroke: #3f3f3f"/>
   </g>
   <g id="line2d_25">
    <path d="M 170.6 369.36 
L 195.4 369.36 
" clip-path="url(#p6c6cb29584)" style="fill: none; stroke: #3f3f3f; stroke-linecap: square"/>
   </g>
   <g id="line2d_26">
    <path d="M 170.6 363.469091 
L 195.4 363.469091 
" clip-path="url(#p6c6cb29584)" style="fill: none; stroke: #3f3f3f; stroke-linecap: square"/>
   </g>
   <g id="line2d_27">
    <defs>
     <path id="me6755b21a6" d="M 0 3 
C 0.795609 3 1.55874 2.683901 2.12132 2.12132 
C 2.683901 1.55874 3 0.795609 3 0 
C 3 -0.795609 2.683901 -1.55874 2.12132 -2.12132 
C 1.55874 -2.683901 0.795609 -3 0 -3 
C -0.795609 -3 -1.55874 -2.683901 -2.12132 -2.12132 
C -2.683901 -1.55874 -3 -0.795609 -3 0 
C -3 0.795609 -2.683901 1.55874 -2.12132 2.12132 
C -1.55874 2.683901 -0.795609 3 0 3 
z
" style="stroke: #3f3f3f"/>
    </defs>
    <g clip-path="url(#p6c6cb29584)">
     <use xlink:href="#me6755b21a6" x="183" y="359.776901" style="fill-opacity: 0; stroke: #3f3f3f"/>
    </g>
   </g>
   <g id="patch_5">
    <path d="M 220.2 128.570678 
L 269.8 128.570678 
L 269.8 108.410484 
L 220.2 108.410484 
L 220.2 128.570678 
z
" clip-path="url(#p6c6cb29584)" style="fill: #3274a1; stroke: #3f3f3f; stroke-linejoin: miter"/>
   </g>
   <g id="line2d_28">
    <path d="M 245 128.570678 
L 245 144.102857 
" clip-path="url(#p6c6cb29584)" style="fill: none; stroke: #3f3f3f"/>
   </g>
   <g id="line2d_29">
    <path d="M 245 108.410484 
L 245 89.01 
" clip-path="url(#p6c6cb29584)" style="fill: none; stroke: #3f3f3f"/>
   </g>
   <g id="line2d_30">
    <path d="M 232.6 144.102857 
L 257.4 144.102857 
" clip-path="url(#p6c6cb29584)" style="fill: none; stroke: #3f3f3f; stroke-linecap: square"/>
   </g>
   <g id="line2d_31">
    <path d="M 232.6 89.01 
L 257.4 89.01 
" clip-path="url(#p6c6cb29584)" style="fill: none; stroke: #3f3f3f; stroke-linecap: square"/>
   </g>
   <g id="line2d_32"/>
   <g id="patch_6">
    <path d="M 282.2 234.161119 
L 331.8 234.161119 
L 331.8 213.077938 
L 282.2 213.077938 
L 282.2 234.161119 
z
" clip-path="url(#p6c6cb29584)" style="fill: #3274a1; stroke: #3f3f3f; stroke-linejoin: miter"/>
   </g>
   <g id="line2d_33">
    <path d="M 307 234.161119 
L 307 243.041013 
" clip-path="url(#p6c6cb29584)" style="fill: none; stroke: #3f3f3f"/>
   </g>
   <g id="line2d_34">
    <path d="M 307 213.077938 
L 307 200.371765 
" clip-path="url(#p6c6cb29584)" style="fill: none; stroke: #3f3f3f"/>
   </g>
   <g id="line2d_35">
    <path d="M 294.6 243.041013 
L 319.4 243.041013 
" clip-path="url(#p6c6cb29584)" style="fill: none; stroke: #3f3f3f; stroke-linecap: square"/>
   </g>
   <g id="line2d_36">
    <path d="M 294.6 200.371765 
L 319.4 200.371765 
" clip-path="url(#p6c6cb29584)" style="fill: none; stroke: #3f3f3f; stroke-linecap: square"/>
   </g>
   <g id="line2d_37"/>
   <g id="patch_7">
    <path d="M 344.2 224.058462 
L 393.8 224.058462 
L 393.8 184.207964 
L 344.2 184.207964 
L 344.2 224.058462 
z
" clip-path="url(#p6c6cb29584)" style="fill: #3274a1; stroke: #3f3f3f; stroke-linejoin: miter"/>
   </g>
   <g id="line2d_38">
    <path d="M 369 224.058462 
L 369 246.765405 
" clip-path="url(#p6c6cb29584)" style="fill: none; stroke: #3f3f3f"/>
   </g>
   <g id="line2d_39">
    <path d="M 369 184.207964 
L 369 127.927742 
" clip-path="url(#p6c6cb29584)" style="fill: none; stroke: #3f3f3f"/>
   </g>
   <g id="line2d_40">
    <path d="M 356.6 246.765405 
L 381.4 246.765405 
" clip-path="url(#p6c6cb29584)" style="fill: none; stroke: #3f3f3f; stroke-linecap: square"/>
   </g>
   <g id="line2d_41">
    <path d="M 356.6 127.927742 
L 381.4 127.927742 
" clip-path="url(#p6c6cb29584)" style="fill: none; stroke: #3f3f3f; stroke-linecap: square"/>
   </g>
   <g id="line2d_42"/>
   <g id="patch_8">
    <path d="M 406.2 146.343051 
L 455.8 146.343051 
L 455.8 115.431983 
L 406.2 115.431983 
L 406.2 146.343051 
z
" clip-path="url(#p6c6cb29584)" style="fill: #3274a1; stroke: #3f3f3f; stroke-linejoin: miter"/>
   </g>
   <g id="line2d_43">
    <path d="M 431 146.343051 
L 431 171.309296 
" clip-path="url(#p6c6cb29584)" style="fill: none; stroke: #3f3f3f"/>
   </g>
   <g id="line2d_44">
    <path d="M 431 115.431983 
L 431 108.96 
" clip-path="url(#p6c6cb29584)" style="fill: none; stroke: #3f3f3f"/>
   </g>
   <g id="line2d_45">
    <path d="M 418.6 171.309296 
L 443.4 171.309296 
" clip-path="url(#p6c6cb29584)" style="fill: none; stroke: #3f3f3f; stroke-linecap: square"/>
   </g>
   <g id="line2d_46">
    <path d="M 418.6 108.96 
L 443.4 108.96 
" clip-path="url(#p6c6cb29584)" style="fill: none; stroke: #3f3f3f; stroke-linecap: square"/>
   </g>
   <g id="line2d_47">
    <g clip-path="url(#p6c6cb29584)">
     <use xlink:href="#me6755b21a6" x="431" y="194.898462" style="fill-opacity: 0; stroke: #3f3f3f"/>
    </g>
   </g>
   <g id="patch_9">
    <path d="M 468.2 106.749474 
L 517.8 106.749474 
L 517.8 86.269091 
L 468.2 86.269091 
L 468.2 106.749474 
z
" clip-path="url(#p6c6cb29584)" style="fill: #3274a1; stroke: #3f3f3f; stroke-linejoin: miter"/>
   </g>
   <g id="line2d_48">
    <path d="M 493 106.749474 
L 493 132.404776 
" clip-path="url(#p6c6cb29584)" style="fill: none; stroke: #3f3f3f"/>
   </g>
   <g id="line2d_49">
    <path d="M 493 86.269091 
L 493 66.96 
" clip-path="url(#p6c6cb29584)" style="fill: none; stroke: #3f3f3f"/>
   </g>
   <g id="line2d_50">
    <path d="M 480.6 132.404776 
L 505.4 132.404776 
" clip-path="url(#p6c6cb29584)" style="fill: none; stroke: #3f3f3f; stroke-linecap: square"/>
   </g>
   <g id="line2d_51">
    <path d="M 480.6 66.96 
L 505.4 66.96 
" clip-path="url(#p6c6cb29584)" style="fill: none; stroke: #3f3f3f; stroke-linecap: square"/>
   </g>
   <g id="line2d_52"/>
   <g id="patch_10">
    <path d="M 530.2 354.710616 
L 579.8 354.710616 
L 579.8 348.640749 
L 530.2 348.640749 
L 530.2 354.710616 
z
" clip-path="url(#p6c6cb29584)" style="fill: #3274a1; stroke: #3f3f3f; stroke-linejoin: miter"/>
   </g>
   <g id="line2d_53">
    <path d="M 555 354.710616 
L 555 360.039452 
" clip-path="url(#p6c6cb29584)" style="fill: none; stroke: #3f3f3f"/>
   </g>
   <g id="line2d_54">
    <path d="M 555 348.640749 
L 555 342.48 
" clip-path="url(#p6c6cb29584)" style="fill: none; stroke: #3f3f3f"/>
   </g>
   <g id="line2d_55">
    <path d="M 542.6 360.039452 
L 567.4 360.039452 
" clip-path="url(#p6c6cb29584)" style="fill: none; stroke: #3f3f3f; stroke-linecap: square"/>
   </g>
   <g id="line2d_56">
    <path d="M 542.6 342.48 
L 567.4 342.48 
" clip-path="url(#p6c6cb29584)" style="fill: none; stroke: #3f3f3f; stroke-linecap: square"/>
   </g>
   <g id="line2d_57"/>
   <g id="patch_11">
    <path d="M 592.2 343.515565 
L 641.8 343.515565 
L 641.8 335.328493 
L 592.2 335.328493 
L 592.2 343.515565 
z
" clip-path="url(#p6c6cb29584)" style="fill: #3274a1; stroke: #3f3f3f; stroke-linejoin: miter"/>
   </g>
   <g id="line2d_58">
    <path d="M 617 343.515565 
L 617 351.216 
" clip-path="url(#p6c6cb29584)" style="fill: none; stroke: #3f3f3f"/>
   </g>
   <g id="line2d_59">
    <path d="M 617 335.328493 
L 617 326.317664 
" clip-path="url(#p6c6cb29584)" style="fill: none; stroke: #3f3f3f"/>
   </g>
   <g id="line2d_60">
    <path d="M 604.6 351.216 
L 629.4 351.216 
" clip-path="url(#p6c6cb29584)" style="fill: none; stroke: #3f3f3f; stroke-linecap: square"/>
   </g>
   <g id="line2d_61">
    <path d="M 604.6 326.317664 
L 629.4 326.317664 
" clip-path="url(#p6c6cb29584)" style="fill: none; stroke: #3f3f3f; stroke-linecap: square"/>
   </g>
   <g id="line2d_62">
    <g clip-path="url(#p6c6cb29584)">
     <use xlink:href="#me6755b21a6" x="617" y="359.427153" style="fill-opacity: 0; stroke: #3f3f3f"/>
    </g>
   </g>
   <g id="line2d_63">
    <path d="M 96.2 334.220229 
L 145.8 334.220229 
" clip-path="url(#p6c6cb29584)" style="fill: none; stroke: #3f3f3f"/>
   </g>
   <g id="line2d_64">
    <path d="M 158.2 367.915414 
L 207.8 367.915414 
" clip-path="url(#p6c6cb29584)" style="fill: none; stroke: #3f3f3f"/>
   </g>
   <g id="line2d_65">
    <path d="M 220.2 113.116697 
L 269.8 113.116697 
" clip-path="url(#p6c6cb29584)" style="fill: none; stroke: #3f3f3f"/>
   </g>
   <g id="line2d_66">
    <path d="M 282.2 222.759 
L 331.8 222.759 
" clip-path="url(#p6c6cb29584)" style="fill: none; stroke: #3f3f3f"/>
   </g>
   <g id="line2d_67">
    <path d="M 344.2 194.883158 
L 393.8 194.883158 
" clip-path="url(#p6c6cb29584)" style="fill: none; stroke: #3f3f3f"/>
   </g>
   <g id="line2d_68">
    <path d="M 406.2 134.73931 
L 455.8 134.73931 
" clip-path="url(#p6c6cb29584)" style="fill: none; stroke: #3f3f3f"/>
   </g>
   <g id="line2d_69">
    <path d="M 468.2 104.619087 
L 517.8 104.619087 
" clip-path="url(#p6c6cb29584)" style="fill: none; stroke: #3f3f3f"/>
   </g>
   <g id="line2d_70">
    <path d="M 530.2 349.856314 
L 579.8 349.856314 
" clip-path="url(#p6c6cb29584)" style="fill: none; stroke: #3f3f3f"/>
   </g>
   <g id="line2d_71">
    <path d="M 592.2 338.133913 
L 641.8 338.133913 
" clip-path="url(#p6c6cb29584)" style="fill: none; stroke: #3f3f3f"/>
   </g>
   <g id="patch_12">
    <path d="M 90 384.48 
L 90 51.84 
" style="fill: none; stroke: #000000; stroke-width: 0.8; stroke-linejoin: miter; stroke-linecap: square"/>
   </g>
   <g id="patch_13">
    <path d="M 648 384.48 
L 648 51.84 
" style="fill: none; stroke: #000000; stroke-width: 0.8; stroke-linejoin: miter; stroke-linecap: square"/>
   </g>
   <g id="patch_14">
    <path d="M 90 384.48 
L 648 384.48 
" style="fill: none; stroke: #000000; stroke-width: 0.8; stroke-linejoin: miter; stroke-linecap: square"/>
   </g>
   <g id="patch_15">
    <path d="M 90 51.84 
L 648 51.84 
" style="fill: none; stroke: #000000; stroke-width: 0.8; stroke-linejoin: miter; stroke-linecap: square"/>
   </g>
  </g>
 </g>
 <defs>
  <clipPath id="p6c6cb29584">
   <rect x="90" y="51.84" width="558" height="332.64"/>
  </clipPath>
 </defs>
</svg>
